<svg height="1701.899" viewBox="0 0 1855.016 1701.899" width="1855.016" xmlns="http://www.w3.org/2000/svg"><path d="m198.1 966.513s31.506 20.315 54.609 22.743 68.894 4.382 108.443-22.743 64.99-41.988 72.229-58.267 4.958-44.769-9-108.078-39.69-186.449-47.965-236.437-21.982-210.331-21.982-210.331l-.409-121.428 7.007-139.237 8.2-68.647 36.114 59.563 36.113 59.564s.454-4.876 41.265-9.445 135.854-6.833 135.854-6.833l64.437 4.219 60.225-99.994 18.625-22.262s36.183 101.12 45.823 124.867 43.605 91.056 58.69 112.965 124.039 169.49 124.039 169.49l167.777 218.631s112.518 159.234 146.862 220.739 79.466 139.345 106.787 216.408 59.452 196.431 67.441 247.041 9 171.14 13.971 183.383 18.8 9.627 36.3-5.727 76.406-76 99.947-127.708 61.7-137.867 74.769-198.81 34.836-174.571 27.022-262.025-50.918-343.769-55.188-366.746-29.62-124.24 4.251-140.925 92.606 28.861 114.963 75.4 56.107 136.553 52.927 241.305-11.38 234.756-21.17 296.071-16.564 140.608-51.7 222.649-74.5 167.63-115.515 218.076-99.58 103.6-127.293 136.512-31.929 51.726-55.7 69.4.954 19.13-45.944 23.034-197.146 11.62-211.252 11.857-108.835-1.684-108.835-1.684l-10.173-18-212.87 7.827s-240.41 1.925-249.067-8.1-24.846-41.984 9.589-59.2 70.435-32.869 70.435-32.869-15.653-59.479-70.435-173.739-73.251-137.806-94.538-197.251-35.375-129.88-40.071-169.01-17.217-76.7-17.217-76.7-11.484 38.217-50.472 59.529-62.071 37.552-104.412 41.077-60.716 14.212-104.978-6.6-74.741-45.686-100.138-40.792-89.947 55.448-107.582 43.119-31.463-39.646-9.334-58.529 43.186-39.589 80.051-46.525 68.137-4.886 83.305 2.143z" fill="#fff"/><path d="m621.52 306.974a240.488 240.488 0 0 1 103.107-50.222c31.319-6.719 68.015-5.5 90.226 17.577 20.985 21.806 21.681 58.383 5.8 84.143s-45.3 41.122-75.259 45.425c-9.231 1.326-18.73 1.706-27.81-.418-11.289-2.642-21.31-8.981-32.04-13.371-32.831-13.433-123.956-33.146-64.024-83.134z" fill="#4e4e4e"/><path d="m521.671 210.6c9.118 4.991 19.358 7.6 29.623 9.233 8.362 1.329 21.468 1.475 29.63-.777 22.132-6.107 32.6-14.923 41.827-29.343s8.194-30.068 12.554-46.622c.8-3.043 1.531-6.5-.15-9.161-1.936-3.062-6.1-3.615-9.711-3.849q-46.44-3.006-93-3.5c-23.457-.25-42.406 1.72-42.5 28.653-.083 22.144 12.133 44.638 31.727 55.366z" fill="#4e4e4e"/><path d="m766.2 314.091c8.724 3.036 17.373 7.218 23.423 14.2-9.193 3.23-18.71 5.424-28.2 7.612-13.8 3.18-27.625 6.365-41.66 8.252a229.743 229.743 0 0 1 -59.6.178c-28.457-3.627-9.906-14.958 6.275-23.087 30.547-15.346 67.369-18.43 99.762-7.155z" fill="#fff"/><g fill="#b1b1b1"><path d="m543 418.807c5.068 2.367 11.578-1.487 13-6.9s-1.456-11.313-5.95-14.644-10.283-4.453-15.876-4.5c-5.057-.047-10.279.765-14.558 3.462s-7.427 7.562-7.034 12.6c.485 6.239 6.189 11.063 12.257 12.591s12.451.483 18.62-.568"/><path d="m540.077 433.213a10.557 10.557 0 0 0 -4.907 5.582c-3.731 9.1 3.794 20.083 13.418 22.094s19.652-3.219 25.852-10.849a23.076 23.076 0 0 0 5.281-10.89c1.594-10.67-9.006-20.779-19.781-20.244s-19.868 9.974-21.814 20.585"/><path d="m998.186 695.317c-5.332 57.735 15.074 118.872 59.036 156.674 10.469 9 22.22 16.685 35.186 21.432 16.318 5.975 33.943 7.122 51.286 8.211 19.686 1.237 39.663 2.454 58.955-1.657 25.552-5.446 48.156-19.835 70.134-33.96 4.941-3.176 10.448-7.32 10.508-13.193.049-4.776-3.587-8.662-6.74-12.25-11.684-13.291-19.522-29.431-27.668-45.141a948.081 948.081 0 0 0 -134.342-194.773c-9.569-10.717-23.81-34.07-40.169-32.731-16.445 1.346-30.258 27.685-37.967 39.827-20.571 32.399-34.676 69.198-38.219 107.561z"/><path d="m892.125 537.158c-.094-3.962-.12-8.184 1.983-11.543 3.305-5.276 10.332-6.368 16.038-8.858 15.971-6.967 23.141-26.463 38.457-34.771 15.5-8.411 36.455-2.182 47.1 11.883s11.649 33.957 5.173 50.364a45.557 45.557 0 0 1 -9.679 15.484c-11.159 11.26-28.21 13.661-43.96 15.457-33.482 3.817-54.166 2.262-55.112-38.016z"/><path d="m940.079 641.568c-2.642 3.747-1.555 9.307 1.7 12.537s8.138 4.378 12.71 4.038c10.7-.8 20.407-10.265 20.363-20.993s-10.96-20.4-21.452-18.17-13.627 9.78-13.32 22.588"/><path d="m1166.877 949.662a80.825 80.825 0 0 0 36.829 6.445c8.146-.5 16.576-2.421 22.775-7.729s9.433-14.689 5.743-21.969c-4.724-9.322-17.19-10.835-27.64-10.964-16.523-.2-36.682 2.32-43.172 17.516-1 2.344-1.573 5.039-.687 7.429 2.452 6.618 4.112 7.079 6.152 9.272"/></g><path d="m258.987 1030.962c-.3 4.136-.636 8.4-2.52 12.093-3.715 7.284-12.265 10.429-20.046 12.942-7.184 2.321-15.091 4.627-22.089 1.794-5.8-2.348-9.683-7.732-14.217-12.048-13.533-12.884-33.2-16.41-51.647-19.357-12.008-1.919-24.356-3.83-36.232-1.215-33.455 7.368-49.116 38.981-83.328 37.221-5.061-.26-6.9-.216-9.988-4.237-2.445-3.186-10.369-2.016-10.771-6.012-1.1-10.97-3.785-19.509-3.423-30.529.189-5.745 3.254-6.7 6.025-11.732 3.919-7.127 9.067-16.1 16.383-19.652l51.658-25.09c19.639-9.539 38.594-20.168 60.306-17.867 46.588 4.937 123.895 28.564 119.889 83.689z" fill="#626262"/><path d="m1231.634 1147.816c17.077 37.221 9.913 83.647-15.614 115.669-23.8 29.849-63.308 47.172-101.119 41.93-14.992-2.079-31.375-9.414-35.551-23.961-1.311-4.569-1.258-9.4-1.127-14.155a506.228 506.228 0 0 1 7.127-71.836c4.132-24.034 10.123-48.079 21.836-69.468 15.7-28.671 20.2-42.493 56.383-33.875 29.382 6.998 55.463 28.229 68.065 55.696z" fill="#626262"/><path d="m1758.2 687.921c21.295-2.5 41.319-11.167 60.842-20.032 5.71-2.592 11.607-5.36 15.617-10.181 7.879-9.476 6.061-23.408 3.74-35.511-11.622-60.6-25.915-122.834-62.435-172.566-16.259-22.141-37.278-41.642-62.962-51.38-13.227-5.015-29.915-6.637-39.971 3.313-5.654 5.595-7.941 13.712-9.314 21.547-5.644 32.2.463 65.175 6.557 97.3 7.792 41.07 15.394 82.181 23.376 123.214 6.971 35.84 25.555 48.881 64.55 44.296z" fill="#626262"/><path d="m363.556 20.622c-10.65 64.841-13.993 130.3-15.9 195.883-1.787 61.548-1.518 123.191 2.24 184.664 4.644 75.986 16.882 150.689 31.179 225.382q17.215 89.943 37.638 179.24c3.017 13.281 6.054 26.56 9.212 39.808 4.273 17.923 11.872 38.934 1.6 56.141-6.379 10.682-16.55 19.1-26.069 26.867a362.851 362.851 0 0 1 -43.687 30.865c-29.372 17.459-62.909 28.922-97.458 24.588-29.112-3.651-52.933-21.338-79.6-31.929-26.787-10.641-54.5-10.272-81.884-2.235-26.66 7.825-52.941 20.467-74.466 38.172-17.837 14.672-33.654 38.038-22.818 61.746a33.935 33.935 0 0 0 25.063 19.379c15.171 2.624 28.519-4.4 40.305-13.166 20.807-15.468 50.581-35.628 78.2-29.633 12.327 2.675 23.828 9.286 34.9 15.073 14.1 7.37 28.132 14.876 42.793 21.1 32.14 13.646 65.431 16.52 100.034 13.087a279.718 279.718 0 0 0 96.059-27.8c27.481-13.535 49.255-31.572 67.482-56.177 3.113-4.2 6.077-8.51 8.983-12.857 1.207-1.805 4.723-6.429 4.835-7.24.425-3.073-8.035-3.877-9.172-1.691-.325.626-.149-1.773-.207-.456a10.376 10.376 0 0 0 .576 2.1c.583 2.856 1.144 5.7 1.615 8.581 3.561 21.765 6.11 43.7 9.422 65.5 8.537 56.2 20.165 111.26 41.292 164.168 20.65 51.715 44.658 102.1 68.913 152.2 20.42 42.177 41.5 84.031 61.553 126.384 8.115 17.14 16.34 34.232 24.149 51.514 5.342 11.824 11.165 23.913 14.425 36.528.3 1.148.313 2.777.844 3.792 1.1 2.107-1.01 1.532.995-.085 1.356-1.093-.745.485-1.322.671-1.253.4-2.56 1.134-3.8 1.614-8.082 3.139-16.463 5.548-24.672 8.329-19.069 6.457-40.809 13.506-55.534 27.911-14.319 14.007-15.959 43.33-1.352 57.852 10.163 10.1 25.377 7.991 38.507 8.44 25.445.871 50.886 1.865 76.334 2.663 109.7 3.439 219 .475 328.606-4.451q13.644-.614 27.286-1.269c8.676-.425 8.727-13.972 0-13.545-85.471 4.185-171.2 8.3-256.785 7.787-58.05-.345-116.054-2.673-174.062-4.682-11.375-.394-28.37 2.853-33.809-9.951-3.8-8.947-3.856-23.04 2.563-30.853 6.024-7.332 15.324-12 23.741-15.959 17.339-8.16 35.969-12.637 53.753-19.584 5.155-2.013 11.06-4.149 12.747-10.009 2.221-7.713-2.522-17.83-5.194-24.812-11.958-31.247-27.442-61.243-41.734-91.458-8.2-17.325-16.742-34.485-25.209-51.678-24.413-49.567-48.761-99.186-71.516-149.543-21.777-48.193-41.9-96.64-53.531-148.391-6.538-29.082-11.428-58.513-15.741-88-2.877-19.667-4.912-39.557-8.571-59.1-.76-4.06-1.416-9.583-5.345-11.917-6.6-3.922-10.82 3.6-13.859 8.132-14.375 21.424-30.227 42.269-52.477 56.1a264.328 264.328 0 0 1 -96.093 35.772c-34.015 5.569-69.777 5.307-102.242-7.075-27.635-10.539-52.13-28.481-80.145-37.929-23.22-7.831-47.581.513-68.241 11.695a206.458 206.458 0 0 0 -21.745 13.725c-7.716 5.521-14.9 11.973-24.263 14.534-12.291 3.362-25.214-1.9-28.469-14.913-6.335-25.333 22.418-44.911 40.733-55.775 23.356-13.853 51.221-25.51 78.628-27.14 30.386-1.808 54.953 12.609 81.266 25.384 27.818 13.507 56.561 18.8 87.3 13.6 33.158-5.613 63.243-22.748 90.111-42.288 19.444-14.141 44.54-30.784 53.068-54.555 6.872-19.153-.591-40.779-5.057-59.607-25.659-108.177-49.263-217.5-65.739-327.468-18.26-121.873-17.6-247.084-10.658-369.929a1118.873 1118.873 0 0 1 12.537-118.22c1.4-8.527-11.65-12.195-13.061-3.6z"/><path d="m363.383 27.5 28.217 46.542 28.088 46.328 15.921 26.259c1.837 3.028 6.158 4.434 9.267 2.429a6.887 6.887 0 0 0 2.429-9.266l-28.218-46.54-28.087-46.327-15.921-26.26c-1.836-3.028-6.157-4.433-9.266-2.429a6.888 6.888 0 0 0 -2.43 9.266z"/><path d="m443.259 149.741c14.487-3.334 29.134-5.954 43.848-8.057q1.332-.191 2.665-.375l1.44-.2.617-.084c.866-.118-1.593.212-.356.049q2.9-.384 5.8-.746 5.86-.728 11.733-1.353 11.8-1.258 23.643-2.139 24.167-1.806 48.412-2.162 23.739-.364 47.474.637c15.019.646 30.024 1.723 44.969 3.352q2.667.291 5.33.606a6.751 6.751 0 0 0 4.789-1.984 6.772 6.772 0 0 0 0-9.578 7.856 7.856 0 0 0 -4.789-1.983c-14.78-1.745-29.624-2.933-44.488-3.686q-23.816-1.208-47.675-.976-24.234.21-48.43 1.831c-15.911 1.076-31.79 2.628-47.6 4.746-15.344 2.056-30.626 4.568-45.756 7.866q-2.621.57-5.233 1.173a6.829 6.829 0 0 0 -4.73 8.331 6.921 6.921 0 0 0 8.331 4.73z"/><path d="m688.862 134.57q13.377-25.365 28.147-49.961 14.707-24.48 30.763-48.116 9.046-13.318 18.509-26.348a6.828 6.828 0 0 0 .683-5.219 6.907 6.907 0 0 0 -3.112-4.047c-3.514-1.857-7.037-.642-9.266 2.429q-16.846 23.207-32.386 47.324-15.462 24.009-29.574 48.855-7.951 14-15.46 28.246c-1.651 3.132-.9 7.507 2.43 9.266 3.128 1.653 7.5.917 9.266-2.429z"/><path d="m755.334 10.7c20.144 54.75 38.459 110.257 61.932 163.718 13.346 30.4 30.873 57.77 49.641 85.087 58.024 84.453 121.28 165.4 183.968 246.4 71.178 91.974 142.224 183.83 204.868 281.954 64.411 100.891 122.1 207.616 162.567 320.493 29.2 81.435 47.254 165.22 60.509 250.526a595.819 595.819 0 0 1 6.659 84.052c.268 20.729-1.55 42.233 1.424 62.819 1.4 9.705 6.279 18.142 17.226 14.84 10.205-3.079 19.489-10.666 27.709-17.119 76.187-59.8 116.862-150.825 149.96-239.268a869.676 869.676 0 0 0 40.236-143.163c9.913-52.4 16.633-106.252 17.223-159.625 1.1-99.731-15.628-199.381-33.73-297.141q-10.62-57.346-21.053-114.718c-4.648-25.523-10.133-51-13.034-76.808-2.008-17.866-4.645-40.076 4.063-56.695 14.695-28.047 49.487-11.14 66.817 3.624 29.656 25.266 50.284 60.983 65.466 96.375 20.684 48.22 31.7 100.763 33.329 153.143 1.44 46.312 0 92.864-2.148 139.129-4.736 102-14.858 204.4-36 304.4a903.008 903.008 0 0 1 -113.462 284.9c-23.592 38.544-50.42 75.138-81.173 108.291-13.441 14.49-27.763 27.939-42.321 41.284a589.2 589.2 0 0 0 -56.967 60.266c-11.793 14.35-22.714 29.349-34.1 44.013-5.7 7.345-11.159 15.243-19.745 18.348-14.338 5.184-30.491 6.425-45.529 7.974-24.693 2.544-49.5 4-74.28 5.343-54.662 2.958-109.415 5.744-164.174 5.154q-21.807-.234-43.592-1.26c-3.989-.187-7.977-.413-11.968-.572-1.252-.05-2.519-.037-3.768-.124-1.2-.085-.233.811-1.015-.449-6.54-10.529 1.775-25.3 10.084-32.562 9.786-8.546 22.917-12.239 35.092-15.929 11.43-3.465 23.068-6.082 34.608-9.131 13.479-3.561 26.271-8.185 33.1-21.175 3.992-7.6 5.951-15.564 5.016-24.16-1.583-14.554-8.851-28.311-15.966-40.843-12.037-21.2-26.646-40.737-40.1-61.027-28.094-42.362-53.526-87.261-70.926-135.149-8.627-23.742-15.5-48.477-18.2-73.652-2.8-26.125.094-51.078 5.853-76.613 9.457-41.932 25.014-85.4 55.575-116.79 23.7-24.342 58.752-40.607 92.617-43.421 8.625-.716 8.7-14.268 0-13.545-35.414 2.942-72.132 18.743-97.96 43.214-30.864 29.242-48.426 70.223-59.271 110.617-6.7 24.956-12.074 50.811-11.617 76.762.445 25.194 5.276 50.292 12.445 74.389 14.756 49.6 38.97 96.264 66.273 140.031 13.24 21.223 28 41.386 41.593 62.369 9.73 15.021 20.436 31.173 25.04 48.7 2.139 8.147 1.59 15.162-1.734 21.639-7.009 13.658-24.044 15.291-37.6 18.67-22.4 5.583-49.473 10.822-66.162 28.082-9.984 10.325-16.3 25.835-12.154 40.162 2.853 9.867 9.356 13.1 18.866 13.466 10.348.4 20.686 1 31.039 1.328 49.288 1.549 98.554-.263 147.788-2.577 48.369-2.273 97.8-3.083 145.622-11.363 10.806-1.871 22.841-3.941 31.423-11.292 9.829-8.419 17.227-20.1 24.962-30.349 13.446-17.811 27.348-35.243 42.367-51.762 17.775-19.549 37.481-36.863 56.477-55.154 69.106-66.541 120.577-149.637 159.974-236.579 20.822-45.949 38.289-92.842 50.769-141.739 12.6-49.348 21.519-99.612 28.49-150.041a2247.617 2247.617 0 0 0 20.762-301.457c.138-51.843-3.6-102.688-18.415-152.648-12.612-42.532-31.583-84.084-59.1-119.1-17.291-22.01-41.771-46.927-71.331-49.636-14.183-1.3-29.278 4-38.215 15.314-11.031 13.964-12.159 33.476-11.563 50.544.848 24.274 5.511 48.419 9.923 72.242 4.1 22.119 7.9 44.285 11.936 66.415 7.5 41.186 15.67 82.244 22.771 123.5 17.7 102.883 31 207.269 20.677 311.654-5.312 53.715-14.313 107.055-28.736 159.1-13.714 49.491-32.224 97.457-53.182 144.3-21.478 48.006-46.666 92.728-82.946 131.234-12.124 12.867-25.11 25.29-39.494 35.629a96.773 96.773 0 0 1 -14.035 8.776c-1.6.773-1.992.54-3.627 1.452-1.492.833-.568-.377-.358.162-.43-1.105 1.523 1.085 1.857.793.04-.035-.687-3.067-.966-4.829a95.527 95.527 0 0 1 -.824-11.341c-.407-11.1-.243-22.226-.262-33.333-.053-30.092-.96-60.177-5.132-90.016-5.046-36.1-11.164-72.16-18.578-107.843-22.395-107.782-60.8-210.738-110.136-309.013-53.8-107.154-118.858-208.193-189.494-304.95-67.752-92.807-140.208-182.128-209.306-273.934-29.127-38.7-58.04-77.6-85.568-117.462-19-27.516-37.2-55.15-50.778-85.781-23.577-53.176-41.671-108.596-61.735-163.139-2.985-8.113-16.081-4.606-13.062 3.6z"/><path d="m645.217 344.163a126.636 126.636 0 0 1 25.957-14.963c1.217-.53-1.277.53-.434.182.283-.117.566-.236.849-.352q.852-.349 1.708-.687 1.89-.744 3.8-1.435 3.488-1.26 7.036-2.339a150.831 150.831 0 0 1 15.22-3.773q3.687-.714 7.4-1.249c.372-.053.746-.1 1.117-.156-1.975.3-1.124.148-.683.093.622-.078 1.244-.157 1.866-.23q2.055-.241 4.116-.427 7.677-.694 15.4-.634a152.53 152.53 0 0 1 15.685.93q.832.093 1.665.2l.924.116c1.345.169-1.437-.2-.51-.069 1.286.184 2.572.374 3.854.586q3.829.636 7.621 1.478a132.794 132.794 0 0 1 16.146 4.672q2.043.736 4.058 1.545l.67.271c.222.09 1.718.716.523.211-1.147-.483-.013 0 .185.083q.5.214.988.433 3.93 1.742 7.721 3.771c3.123 1.668 7.513.888 9.266-2.43 1.66-3.142.907-7.484-2.43-9.266-19.108-10.2-40.66-15.236-62.24-15.984a158.014 158.014 0 0 0 -63 10.546 131.79 131.79 0 0 0 -31.317 17.184 7.42 7.42 0 0 0 -3.112 4.048 6.92 6.92 0 0 0 .682 5.218c1.8 2.786 6.243 4.714 9.267 2.43z"/><path d="m640.019 348.841a308.756 308.756 0 0 0 62.077 5.177 267.229 267.229 0 0 0 60.085-8.081 237.773 237.773 0 0 0 31.527-10.445 7.44 7.44 0 0 0 4.047-3.112 6.772 6.772 0 0 0 -2.429-9.266c-1.5-.792-3.574-1.359-5.219-.683a242.681 242.681 0 0 1 -56.161 15.419c-1.2.181-2.4.333-3.6.515.151-.022 1.65-.214.449-.061l-.9.116q-.9.114-1.806.223-3.734.447-7.479.788-7.405.672-14.84.935a284.842 284.842 0 0 1 -29.54-.5q-8.5-.58-16.959-1.642c-.7-.087-1.395-.2-2.094-.269.165.017 1.62.223.405.054-.388-.054-.776-.107-1.164-.162q-2.1-.294-4.188-.618-4.314-.666-8.609-1.451a7.289 7.289 0 0 0 -5.218.682 6.9 6.9 0 0 0 -3.113 4.048c-.755 3.315 1 7.652 4.731 8.331z"/><path d="m379.834 350.512a97.888 97.888 0 0 1 11.34-7.286q3.065-1.687 6.231-3.178 1.533-.723 3.085-1.4c.467-.2 2.487-1 .267-.123.639-.253 1.271-.525 1.91-.779a142.434 142.434 0 0 1 28.5-7.925q1.815-.314 3.638-.582c.61-.091 1.22-.174 1.831-.26-2.461.349.222-.021.774-.087q3.89-.465 7.8-.738 7.889-.551 15.807-.325c5.179.15 10.338.576 15.479 1.216 1.42.176-1.713-.242-.3-.04l.75.106q.939.137 1.874.283 2.059.326 4.107.707 3.906.729 7.767 1.672a132.694 132.694 0 0 1 16.867 5.317q1.047.41 2.088.839c.231.1.46.193.692.287-1.986-.813-.512-.213-.069-.02q1.972.859 3.912 1.789 4.041 1.935 7.921 4.179c3.07 1.771 7.551.816 9.266-2.43a6.894 6.894 0 0 0 -2.43-9.266c-19.366-11.17-41.541-16.781-63.768-18.009a158.445 158.445 0 0 0 -62.869 8.988 114.911 114.911 0 0 0 -29.3 15.37 7.391 7.391 0 0 0 -3.112 4.048 6.92 6.92 0 0 0 .682 5.218c1.805 2.8 6.231 4.7 9.266 2.43z"/><path d="m376.416 354.962c20.965 2.624 42.063 4.343 63.184 4.969 20.653.613 41.407.22 61.889-2.686a119.616 119.616 0 0 0 25.831-6.145 7.329 7.329 0 0 0 4.048-3.112 6.922 6.922 0 0 0 .683-5.219c-1.042-3.219-4.787-6.08-8.331-4.73a113.585 113.585 0 0 1 -22.554 5.654q-1.554.249-3.112.47c-.578.083-2.661.339-.2.034-.565.07-1.129.148-1.693.218q-3.474.432-6.961.761c-4.834.459-9.681.786-14.531 1.014a523.213 523.213 0 0 1 -63.6-1.31q-17.364-1.3-34.651-3.46a6.74 6.74 0 0 0 -4.789 1.984 6.773 6.773 0 0 0 0 9.577 7.92 7.92 0 0 0 4.789 1.984z"/><path d="m465.419 328.6c.173.085.336.185.506.275 1.125.6-1.012-.884-.589-.491.361.335.73.649 1.071 1.007a12.8 12.8 0 0 1 1.174 1.364c.013-.016-1.21-1.623-.342-.416q.272.376.531.762c.725 1.072 1.389 2.184 2.006 3.321q.466.859.894 1.738.21.43.41.866c.113.246.69 1.587.16.329-.5-1.2-.049-.1.053.163s.2.535.3.805c.191.538.367 1.081.517 1.631a9.21 9.21 0 0 0 .295 1.321 5.31 5.31 0 1 0 -.134-.786c.022.388.008.765 0 1.153-.011 1.216.419-1.571.058-.557-.235.662-.55 1.038.328-.6-.248.462-.479.929-.742 1.385a23.347 23.347 0 0 0 -2.308 5.379c-.95 3.41 1.172 7.52 4.73 8.331a6.9 6.9 0 0 0 8.331-4.73 6.235 6.235 0 0 1 .5-1.544l-.407.978c.089-.193.184-.384.283-.573.3-.576.648-1.124.957-1.695a14.643 14.643 0 0 0 1.811-6.378c.206-3.316-.936-6.508-2.2-9.5a44.773 44.773 0 0 0 -4.419-8.259c-1.813-2.6-4.019-5.53-6.945-6.975-3.173-1.566-7.476-.959-9.266 2.429-1.615 3.057-.962 7.592 2.429 9.267z"/><path d="m731.7 322.409c.477.568.944 1.143 1.41 1.719.842 1.04-.987-1.329-.218-.29.192.261.388.519.578.782a28.649 28.649 0 0 1 1.826 2.825c.237.423.444.858.663 1.29.5.989-.658-1.715-.284-.689.085.232.175.461.255.695a15.251 15.251 0 0 1 .654 2.844l-.242-1.8a21.886 21.886 0 0 1 -.108 5.376l.242-1.8c-.249 1.817-.624 3.609-1.039 5.394-.8 3.443 1.066 7.5 4.73 8.331 3.46.788 7.471-1.04 8.331-4.73 1.217-5.227 2.134-10.621.863-15.929-1.251-5.226-4.708-9.57-8.083-13.594a6.81 6.81 0 0 0 -4.789-1.984 6.893 6.893 0 0 0 -4.789 1.984c-2.66 2.9-2.437 6.67 0 9.577z"/><path d="m557.3 391.836a29.68 29.68 0 0 0 19.977 14.807 30.35 30.35 0 0 0 26.208-7.44 6.823 6.823 0 0 0 0-9.578 6.924 6.924 0 0 0 -9.578 0c-.339.309-.691.6-1.036.9q-.6.485.6-.455-.315.234-.637.458a22.467 22.467 0 0 1 -2 1.235q-.516.282-1.046.539-.354.171-.712.33l.894-.378a20.953 20.953 0 0 0 -2.414.822c-.823.232-1.652.391-2.489.557-1.4.279 1.673-.126.245-.036-.392.025-.782.066-1.174.085a22.33 22.33 0 0 1 -2.548-.028c-.195-.012-.391-.028-.586-.047q-1.1-.12.632.1c-.355-.106-.756-.124-1.118-.2q-1.092-.225-2.156-.557-.533-.166-1.054-.359c-.233-.086-.463-.175-.693-.268q1.482.638.766.315a33.22 33.22 0 0 1 -4.01-2.327c-1.09-.734 1.118.955.194.152-.327-.284-.661-.56-.98-.854a23.076 23.076 0 0 1 -1.689-1.723c-.244-.278-.468-.578-.715-.853 1.3 1.445.459.593.172.18a23.116 23.116 0 0 1 -1.353-2.213 6.834 6.834 0 0 0 -9.267-2.429 6.916 6.916 0 0 0 -2.429 9.266z"/><path d="m569.439 398.31q-.993.805-2 1.595c-.329.258-1.471 1.1.176-.13-.309.23-.611.469-.918.7q-2.068 1.572-4.175 3.093-4.517 3.267-9.174 6.335c-5.879 3.882-11.9 7.578-18.122 10.884a6.83 6.83 0 0 0 -2.43 9.266 6.922 6.922 0 0 0 9.266 2.43 232.1 232.1 0 0 0 36.955-24.6 6.784 6.784 0 0 0 1.983-4.783 6.891 6.891 0 0 0 -1.984-4.789 6.813 6.813 0 0 0 -4.789-1.984 7.78 7.78 0 0 0 -4.789 1.984z"/><path d="m517.854 433.321c5.03-.686 9.923-2.144 14.863-3.269 1.251-.284 2.5-.554 3.766-.79q.978-.183 1.961-.339c.271-.042 1.472-.209.264-.047-1.247.168.068 0 .253-.021a33.932 33.932 0 0 1 3.73-.215c.536 0 1.073.017 1.608.052.291.019.58.051.87.074 1.214.1-1.713-.265-.445-.048l-2.988-11.32a80.4 80.4 0 0 0 -10.163 13.242 86.882 86.882 0 0 0 -7.755 14.818 6.8 6.8 0 0 0 .682 5.219 6.774 6.774 0 0 0 9.266 2.43 7.861 7.861 0 0 0 3.113-4.048c.187-.472.691-1.517-.247.557.1-.229.2-.462.3-.692q.324-.725.667-1.438c.521-1.085 1.073-2.155 1.645-3.214 1.251-2.317 2.6-4.58 4.022-6.8 1.389-2.164 2.849-4.283 4.4-6.335.736-.973-.272.116-.3.384.017-.156.543-.688.645-.814q.522-.649 1.061-1.284c.718-.844 1.462-1.664 2.241-2.451a6.835 6.835 0 0 0 1.742-6.589c-.579-2.1-2.471-4.344-4.73-4.73-11.721-2.006-22.65 3.045-34.072 4.6a6.745 6.745 0 0 0 -4.047 3.113 6.772 6.772 0 0 0 2.429 9.266 8.006 8.006 0 0 0 5.219.683z"/><path d="m771.968 1019.273s-57.913 153.392-120.522 226.957c-41.629 48.914-147.13 133.043-186.261 158.087s-54.785 59.483-40.695 68.869 90.091-29.664 145.645-61.043c60.963-34.435 130.253-87.249 179.92-142.435 56.348-62.609 92.348-144 108-186.261" fill="#fff"/><path d="m765.437 1017.473c-1.81 4.793-3.711 9.552-5.622 14.305q-3.287 8.177-6.686 16.306-.468 1.122-.938 2.243-.242.572-.481 1.144c-.322.764-.543 1.306-.053.127-.727 1.748-1.476 3.487-2.219 5.228q-2.351 5.506-4.747 10.993-11.22 25.692-23.478 50.915c-9.193 18.85-18.87 37.475-29.281 55.683a530.589 530.589 0 0 1 -33.226 51.788q-2.088 2.832-4.234 5.622c.715-.93.008-.011-.3.383q-.51.652-1.022 1.3-1.183 1.5-2.387 2.985-3.918 4.833-8.058 9.481c-5.637 6.331-11.526 12.435-17.53 18.418-14.415 14.365-29.5 28.059-44.83 41.436q-24.261 21.17-49.422 41.28-6.016 4.825-12.082 9.591-2.882 2.264-5.776 4.515-1.364 1.062-2.731 2.12l-.678.524c1.033-.8.229-.177.02-.015q-.784.6-1.567 1.2-10.512 8.084-21.2 15.935c-5.92 4.335-11.889 8.607-17.958 12.731-8.163 5.548-16.444 10.787-24.028 17.152a117.865 117.865 0 0 0 -22.575 24.858c-4.8 7.235-8.61 15.353-9.564 24.054-.8 7.308 1.675 14.43 7.7 18.83 4.824 3.524 11.333 2.953 16.895 2.137 7.332-1.077 14.474-3.475 21.411-6.008 9.859-3.6 19.513-7.78 29.053-12.148 21.763-9.962 43-21.075 64.005-32.541 21.87-11.939 43.4-24.39 64.178-38.16a820.573 820.573 0 0 0 66.074-48.785 689.427 689.427 0 0 0 59.885-54.823 477.6 477.6 0 0 0 50.019-61.292 599.9 599.9 0 0 0 37.654-63.131q14.495-27.894 26.447-57 4.431-10.728 8.476-21.608c1.234-3.328-1.375-7.567-4.73-8.331-3.837-.874-7.01 1.167-8.331 4.73q-4.125 11.127-8.676 22.091-.609 1.47-1.224 2.935c-.1.248-.208.5-.312.743.026-.061.462-1.087.157-.371q-.375.88-.748 1.761-1.377 3.229-2.786 6.444-2.982 6.8-6.1 13.538a667.057 667.057 0 0 1 -31.7 60.317q-9.606 16.159-20.253 31.671c-7.253 10.527-14.448 20.2-22.331 29.823-16.574 20.238-35.1 38.888-54.408 56.505a777.884 777.884 0 0 1 -127 93.76c-20.648 12.131-41.787 23.521-63.105 34.426-10.38 5.31-20.841 10.469-31.438 15.334q-3.651 1.676-7.326 3.3-1.71.755-3.425 1.5-.843.363-1.688.724l-.837.357c.612-.261.5-.211-.044.018-4.331 1.805-8.686 3.551-13.093 5.16a150.525 150.525 0 0 1 -21.241 5.983c-.463.1 1.773-.2.478-.065-.317.032-.634.071-.952.1-.647.06-1.3.105-1.946.125-.549.016-1.1.018-1.648 0-.429-.017-2.333-.213-.834-.032 1.457.175-.127-.056-.529-.166-.2-.053-.4-.145-.6-.181-.989-.182 1.342.746.8.351a9.282 9.282 0 0 0 -1.045-.618c-.85-.442 1.081 1.063.465.348-.208-.24-.482-.468-.714-.686-1.2-1.125.671 1.255-.154-.17-.141-.242-.285-.489-.432-.727-.663-1.071.226-.144.132.455.06-.382-.447-1.275-.55-1.679-.076-.295-.13-.6-.2-.892-.3-1.327.037.585.043.4.047-1.466.037-2.97.069-4.44.009-.4-.292 1.646-.029.326.075-.378.138-.758.218-1.136q.272-1.284.643-2.544c.24-.823.509-1.638.8-2.444q.228-.63.474-1.253c.083-.212.175-.421.256-.634.325-.849-.552 1.164-.135.337.93-1.847 1.775-3.718 2.8-5.518 1.123-1.97 2.343-3.884 3.634-5.748.66-.952 1.341-1.888 2.034-2.817q.267-.355.538-.709c-.069.09-.622.792-.136.186.446-.556.89-1.114 1.344-1.664a118.461 118.461 0 0 1 11.679-12.177 122.552 122.552 0 0 1 13.844-10.96c5.8-3.993 11.765-7.74 17.534-11.788 14.29-10.027 28.195-20.605 41.962-31.335q24.6-19.173 48.432-39.306c15.987-13.5 31.729-27.3 46.988-41.62 12.72-11.937 25.254-24.2 36.6-37.463 12.733-14.884 23.935-31.068 34.316-47.658 11.071-17.695 21.223-35.958 30.823-54.487q13.692-26.427 25.986-53.548 10.244-22.446 19.71-45.234c3.605-8.65 7.134-17.334 10.526-26.07.445-1.146.89-2.293 1.325-3.443 1.254-3.321-1.391-7.57-4.731-8.331-3.855-.878-6.988 1.174-8.331 4.73z"/><path d="m419.458 422.361q-2.043 1.673-4.12 3.3c-.3.234-.591.491-.906.706 1.51-1.033.193-.149-.084.062q-1 .768-2.015 1.524-4.137 3.094-8.4 6.012-8.533 5.835-17.533 10.935a6.774 6.774 0 1 0 6.836 11.7 255.831 255.831 0 0 0 35.805-24.653 6.8 6.8 0 0 0 1.984-4.789 6.893 6.893 0 0 0 -1.984-4.789 6.818 6.818 0 0 0 -4.789-1.984 7.739 7.739 0 0 0 -4.789 1.984z"/><path d="m427.019 457.843a128.733 128.733 0 0 0 -31 32.609 6.821 6.821 0 0 0 2.43 9.266 6.929 6.929 0 0 0 9.266-2.429q1.422-2.158 2.931-4.256.756-1.047 1.535-2.078.195-.258.391-.514.461-.6-.4.518c.191-.023.691-.879.8-1.015q3.153-3.957 6.635-7.636t7.261-7.045q1.931-1.719 3.933-3.351c.612-.5 1.233-.987 1.851-1.478q.6-.467-.519.4c.17-.132.341-.262.513-.392q.6-.456 1.207-.9a7.387 7.387 0 0 0 3.112-4.048 6.92 6.92 0 0 0 -.683-5.218c-1.81-2.809-6.222-4.687-9.266-2.43z"/><path d="m444.2 484.467a102.79 102.79 0 0 0 -22.19 45.459c-.7 3.462 1 7.48 4.73 8.331 3.373.768 7.579-1.017 8.331-4.73a95.667 95.667 0 0 1 3.07-11.5q.88-2.62 1.912-5.187.158-.394.32-.788.418-1.006-.188.441a6.8 6.8 0 0 0 .509-1.169q.6-1.361 1.25-2.7a95.937 95.937 0 0 1 5.59-10.022q1.6-2.508 3.363-4.912.376-.515.761-1.025c.17-.226.342-.452.514-.677q-.94 1.214-.275.364c.623-.773 1.243-1.546 1.881-2.307a7.252 7.252 0 0 0 1.984-4.789 6.893 6.893 0 0 0 -1.984-4.789c-2.508-2.3-7.147-2.9-9.578 0z"/><path d="m696.282 482.812a68.821 68.821 0 0 0 32.437 26.4 6.8 6.8 0 0 0 5.218-.683 6.771 6.771 0 0 0 2.43-9.266 7.873 7.873 0 0 0 -4.047-3.113c-.391-.156-1.713-.766.149.079-.361-.164-.728-.316-1.09-.479q-.995-.448-1.972-.935-2.043-1.014-4.006-2.182-1.875-1.116-3.667-2.367c-.651-.454-1.289-.926-1.926-1.4-.955-.709.916.734.273.207-.308-.251-.62-.5-.926-.749a61.069 61.069 0 0 1 -6.446-6.167c-.976-1.082-1.841-2.256-2.8-3.345 1.286 1.455.366.465.1.1q-.352-.478-.7-.966c-.458-.648-.9-1.308-1.333-1.973-1.931-2.965-6.089-4.477-9.266-2.43-2.962 1.91-4.5 6.091-2.43 9.267z"/><path d="m719.356 464.526 47.073 18.485a6.8 6.8 0 0 0 5.219-.683 6.773 6.773 0 0 0 2.43-9.266 7.816 7.816 0 0 0 -4.048-3.112l-47.073-18.485a6.8 6.8 0 0 0 -5.219.683 6.773 6.773 0 0 0 -2.43 9.266 7.821 7.821 0 0 0 4.048 3.112z"/><path d="m732.727 435.612a345.91 345.91 0 0 1 54.1-1.009 6.814 6.814 0 0 0 6.772-6.773 6.927 6.927 0 0 0 -6.772-6.772 345.91 345.91 0 0 0 -54.1 1.009 7.306 7.306 0 0 0 -4.789 1.984 6.882 6.882 0 0 0 -1.984 4.789c.151 3.375 3 7.139 6.773 6.772z"/><path d="m556.584 655.411 2.97 25.754a7.375 7.375 0 0 0 1.984 4.789 6.88 6.88 0 0 0 4.788 1.984c3.322-.149 7.208-3 6.773-6.773l-2.97-25.754a7.374 7.374 0 0 0 -1.983-4.789 6.884 6.884 0 0 0 -4.789-1.984c-3.321.149-7.207 3-6.773 6.773z"/><path d="m543.333 742.83a59.3 59.3 0 0 0 2.661 42.828 6.789 6.789 0 0 0 4.047 3.113 6.923 6.923 0 0 0 5.219-.683c3.349-2.159 3.992-5.8 2.429-9.266q-.135-.3-.265-.593-.307-.705.257.622c.05-.222-.324-.8-.4-1q-.432-1.11-.811-2.239-.723-2.154-1.251-4.369c-.354-1.476-.622-2.965-.864-4.463-.247-1.534.166 1.629.016.083-.035-.359-.078-.718-.112-1.077q-.112-1.186-.17-2.377-.111-2.271-.023-4.546.047-1.191.145-2.378a12.269 12.269 0 0 0 .226-2.153q-.21 1.52-.094.728c.031-.214.063-.428.1-.642.057-.356.119-.712.183-1.067q.215-1.171.482-2.332c.357-1.548.794-3.075 1.291-4.583a6.824 6.824 0 0 0 -4.73-8.331 6.928 6.928 0 0 0 -8.331 4.73z"/><path d="m597.726 778.577 9.424 21.116a6.789 6.789 0 0 0 4.047 3.113 6.927 6.927 0 0 0 5.219-.683 6.837 6.837 0 0 0 3.112-4.048 7.809 7.809 0 0 0 -.683-5.218l-9.423-21.116a6.789 6.789 0 0 0 -4.047-3.113 6.922 6.922 0 0 0 -5.219.683 6.835 6.835 0 0 0 -3.112 4.047 7.81 7.81 0 0 0 .682 5.219z"/><path d="m654.385 773.755 14.205 9.21a6.774 6.774 0 0 0 6.837-11.7l-14.205-9.21a6.774 6.774 0 0 0 -6.837 11.7z"/><path d="m661.1 903.585 4.731 25.819c.64 3.493 5.062 5.788 8.331 4.73 3.743-1.211 5.416-4.588 4.73-8.331l-4.731-25.819c-.64-3.493-5.062-5.788-8.331-4.73-3.742 1.211-5.416 4.588-4.73 8.331z"/><path d="m593.925 955.916a211.809 211.809 0 0 0 8.959 51.025q2.136 6.94 4.765 13.713a7.352 7.352 0 0 0 3.112 4.048 6.917 6.917 0 0 0 5.219.682c3.2-1.037 6.1-4.793 4.73-8.331a204.453 204.453 0 0 1 -7.6-23.861q-1.517-6.018-2.663-12.121-.584-3.108-1.07-6.232-.217-1.389-.414-2.78c-.044-.309-.086-.618-.129-.928-.11-.777.087.651.086.64-.049-.543-.14-1.085-.207-1.626q-.871-7.091-1.242-14.229c-.187-3.532-2.981-6.942-6.772-6.772-3.51.157-6.973 2.983-6.773 6.772z"/><path d="m613.527 1117.353a41.271 41.271 0 0 0 17.351 25.059c2.942 1.99 7.634.658 9.266-2.43a6.937 6.937 0 0 0 -2.429-9.266q-.945-.639-1.846-1.331l1.371 1.059a35.1 35.1 0 0 1 -5.961-5.962l1.059 1.371a35.573 35.573 0 0 1 -4.585-7.835l.683 1.618a34.742 34.742 0 0 1 -1.847-5.884 6.823 6.823 0 0 0 -8.331-4.73 6.929 6.929 0 0 0 -4.731 8.331z"/><path d="m667.369 1056.839v4.7a6.964 6.964 0 0 0 6.773 6.773l1.8-.242a6.761 6.761 0 0 0 2.989-1.742l1.059-1.371a6.736 6.736 0 0 0 .924-3.418v-4.7a6.959 6.959 0 0 0 -6.772-6.773l-1.8.242a6.763 6.763 0 0 0 -2.988 1.742l-1.059 1.37a6.743 6.743 0 0 0 -.925 3.419z"/><path d="m594.976 867.247a21.318 21.318 0 0 0 -.146 9.594 15.476 15.476 0 0 0 .873 3.034 23.013 23.013 0 0 0 2.123 4.318 7.191 7.191 0 0 0 4.047 3.112 6.918 6.918 0 0 0 5.219-.683 6.772 6.772 0 0 0 2.429-9.266 15.4 15.4 0 0 1 -1.366-2.523l.683 1.618a15.808 15.808 0 0 1 -1.05-3.874l.241 1.8a15.662 15.662 0 0 1 0-4.012l-.242 1.8c.065-.443.146-.881.246-1.318a7.144 7.144 0 0 0 -.683-5.219 6.775 6.775 0 0 0 -12.379 1.618z"/><path d="m535.977 894.849a70.851 70.851 0 0 0 2.4 27.645c.984 3.4 4.819 5.867 8.331 4.731a6.887 6.887 0 0 0 4.73-8.331c-.605-2.091-1.118-4.206-1.516-6.347q-.129-.687-.241-1.378c-.05-.306-.1-.614-.144-.921q-.162-1.13.05.415a4.578 4.578 0 0 1 -.161-1.39q-.085-.812-.15-1.625a65.8 65.8 0 0 1 .242-12.8 6.757 6.757 0 0 0 -1.984-4.789 6.772 6.772 0 0 0 -9.578 0 7.838 7.838 0 0 0 -1.983 4.789z"/><path d="m608.974 1178.368a19.53 19.53 0 0 0 .924 3.416 25.53 25.53 0 0 0 5.165 8.834 19.588 19.588 0 0 0 2.6 2.536 7.545 7.545 0 0 0 4.789 1.984 6.893 6.893 0 0 0 4.789-1.984 6.812 6.812 0 0 0 1.983-4.789 6.592 6.592 0 0 0 -1.983-4.789 19.936 19.936 0 0 1 -3.128-3.187l1.059 1.37a20.379 20.379 0 0 1 -2.621-4.5l.683 1.618a20 20 0 0 1 -1.2-4.11 6.806 6.806 0 0 0 -3.112-4.047 6.772 6.772 0 0 0 -9.266 2.429l-.683 1.618a6.833 6.833 0 0 0 0 3.6z"/></svg>