<svg xmlns="http://www.w3.org/2000/svg" viewBox="0 0 1500 1500" width="1500" height="1500"><g transform="translate(215.0 225.0) rotate(0.0 550.5 420.0) scale(0.5306781111908011 0.530519391115316)"><svg width="2074.704" height="1583.354" viewBox="0 0 2074.704 1583.354"><path d="M593.741 920.9s-20.412-98.651-17.674-225.12S599.7 203.654 599.7 203.654s3.044-121.3 30.111-136.7 74.149-47.207 296.518-53.692 538.748-.957 664.281 6.105 369.147 22.865 398.42 32.719 36.4 81.245 36.392 163.928-5.005 327.272-15.57 430.255-31.836 280.025-46.321 337.178-27.956 83.954-27.956 83.954 45.615-49.262-14.255 57.139-302.085 357.283-336.408 351.581-284.293 19.956-284.293 19.956-419.884-59.869-422.735-71.273-353.515-106.336-353.515-106.336l-384.874-36.7L6.93 1225.181l2.37-22.036s4.105-29.1 105.275-78.605 300.811-134.534 300.811-134.534z" fill="#b1b1b1"/><g fill="#626262"><path d="M2008.829 58.281s46.7-3.523 50.76 34.431 7.809 311.471 7.809 311.471-4.058 179.61-9.244 233.646-18.969 168.243-26.717 216.846-22.27 132.84-26.534 154.3 6.121 37.973-15.44 47.623-53.889 10.8-53.889 10.8 19.956-60.257 22.807-64.533 32.786-200.99 37.062-225.223 24.233-245.179 22.808-289.368 4.276-161.077 4.276-161.077l2.894-111.186-18.04-136.211-10.534-21.6zM1935.574 1086s-86.953 119.279-118.313 156.341-155.375 158.226-198.139 185.31-72.7 69.848-188.161 49.891-525.995-94.08-525.995-94.08L383.248 1272.28s-225.223-37.062-230.925-39.913-128.291-27.084-128.291-27.084L9.3 1203.145s-3.4 30.034-1.7 53.5 3.311 26.225 32.283 34.473 490.89 120.52 490.89 120.52 362.569 69.644 370.811 71.042 319.98 52.389 319.98 52.389 252.123 41.948 262.136 41.931 61.937 15.119 126.923-40.3 156.428-151.983 156.428-151.983l91.917-102.948 58.224-68.725 32.634-43.4 2.152-58.444-2.152-43.136zM665.489 210.312s-14.967 186.023-19.244 288.656-21.1 301.485-12.69 335.7 2 53.454 262.859 72.7 778.3 85.528 848.861 91.942 142.94 34.57 155.929-15.857 47.94-270.66 50.777-360.464 8.725-412.671 8.725-412.671 13.355-64.74-25.132-79.41-436.191-27.5-560.206-46.743-459.711 0-459.711 0-211.681 6.414-222.371 25.658-27.797 100.489-27.797 100.489z"/><path d="M453.808 1042.068s86.28-61.648 122.253-58.621 360.978 43.654 414.433 50.068 434.053 55.593 457.573 59.87 314.314 40.625 314.314 40.625 21.382 12.829-27.8 55.593-141.12 128.757-141.12 128.757l-290.956-36.591s-468.1-72.922-485.207-77.2-314.314-62.008-314.314-62.008L346.9 1101.937zm121.014 213.723s40.774-37.512 53.671-37.254 156.325 18.552 189.438 25.737 142.833 38.294 142.833 38.294-19.944 35.069-34.959 51.386-65.456 4.146-87.056-.664-219.919-39.371-219.919-39.371l-62.07-17.4z"/></g><path d="M868.617 734.169s-1.425-242.685 9.266-251.238 143.306-8.552 147.558 0-7.1 255.149-9.265 270.3-42.788 15.15-87.69 8.735-59.151-10.635-59.869-27.797zm282.241-397.704c4.277-10.691 175.332-14.967 181.746 0s-17.105 423.362-14.967 440.468-173.193 5.766-181.746-2.571 10.691-427.206 14.967-437.897zM1490.83 248.8c9.979-11.748 228.787-8.553 233.063 0s-25.658 528.034-38.487 552.673-227.361 9.572-235.2 0 27.863-537.649 40.624-552.673z" fill="#ffa400"/><path d="M602.336 909.13c-1.171-1.287.443.765-.214-.2-.342-.5-.7-1-.993-1.531-.684-1.246-1.344-2.488-1.919-3.789.35.792-1.051-2.838-1.367-3.782a103.057 103.057 0 0 1-1.827-6.183 246.728 246.728 0 0 1-5.894-32.32c-4.417-34.859-5.832-70.125-6.67-105.225-2.6-108.984 3.472-217.8 8.894-326.607 2.673-53.652 5.3-107.316 8.952-160.912 2.823-41.4 5.91-82.947 12.168-123.991a389.352 389.352 0 0 1 8.686-43.377c2.536-9.341 5.468-18.891 10.748-27.094a21.033 21.033 0 0 1 4.7-5.341 10.368 10.368 0 0 1 2.153-1.578q1.85-1.221 3.774-2.316c6.95-3.946 12.883-6.13 20.573-8.7 22.742-7.612 46.509-12.247 70.106-16.273 34.371-5.864 69.046-9.889 103.751-13.166 96.414-9.1 193.394-12.371 290.2-13.086 119.349-.881 238.737 2.825 357.973 7.715 102.747 4.213 205.462 9.673 308.032 17.067 59.019 4.254 119.375 7.459 177.576 16.823 4.984.8 10.234 1.474 15.012 3.181 1.16.415-.682-.341-.192-.094a14.25 14.25 0 0 1 1.495.818c1.767 1.172.359-.1 2.025 1.644a21.513 21.513 0 0 1 4.49 6.038c8.95 15.355 12.21 36.182 14.976 54.389 9.624 63.347 9.459 128.537 9.033 192.45-.484 72.7-3.357 145.385-7.521 217.959-3.626 63.186-8.45 126.255-15.334 189.175-8.869 81.07-19.42 162.234-34.994 242.318-5.332 27.418-10.742 55.431-20.318 81.751a81.051 81.051 0 0 1-4.494 10.588 51.99 51.99 0 0 1-2.39 4.138c-1.234 1.922.13.2-1.588 1.973-1.447 1.493.794-.311-1.13.857-.4.244-.826.457-1.247.666-1.557.775 1.058-.358-.35.166a48.659 48.659 0 0 1-7.35 2.029 131.035 131.035 0 0 1-21.178 2c-10.346.352-20.71.166-31.054-.209-29.425-1.065-58.8-3.675-88.092-6.559-86.141-8.481-172-19.883-257.832-30.987-113.325-14.661-226.63-29.486-340.089-43.094-103.506-12.414-207.183-23.33-310.774-35.011-76.672-8.646-154.164-15.937-229.979-30.654-9.548-1.854-19.12-3.833-28.45-6.605a106.15 106.15 0 0 1-4.865-1.553q-1.133-.395-2.253-.821c-1.769-.676.085.1-.856-.336a45.615 45.615 0 0 1-3.153-1.614c-2.183-1.222.248.5-.957-.732-6.108-6.239-15.683 3.341-9.578 9.578 4.218 4.307 10.766 6.276 16.346 8.02a276.855 276.855 0 0 0 29.6 7.015c32.54 6.345 65.477 10.723 98.337 15.017 96.943 12.668 194.228 22.7 291.393 33.473q170.593 18.917 340.81 40.887c102.192 13.1 204.308 26.843 306.6 39.177 67.075 8.089 134.73 17.064 202.358 18.6 16.609.377 34.569 1.019 50.778-3.336 14.624-3.929 19.838-16.154 24.653-29.5 9.64-26.717 15.1-55.117 20.475-82.929 7.675-39.706 13.906-79.692 19.565-119.729 10.86-76.843 19.744-154.032 25.532-231.429q7.354-98.346 10.7-196.955c2.531-73.449 3.844-147.163.066-220.593-1.488-28.928-3.707-57.965-8.613-86.539-3.026-17.624-6.6-37.816-16.973-52.859-7.554-10.956-17.676-13.04-30.057-14.992-23.228-3.664-46.7-5.908-70.1-8.134-86.421-8.222-173.129-13.675-259.8-18.469Q1467.96 5.674 1291.23 1.56C1178.624-1.017 1065.9-.745 953.389 4.994 875.67 8.958 797.352 14.589 720.7 28.6c-22.508 4.113-45.309 8.8-66.789 16.854-13.591 5.1-26.774 11.263-34.224 24.338-12.78 22.43-16.333 50.824-19.985 75.908-6.2 42.6-9.468 85.609-12.332 128.539-3.692 55.327-6.354 110.718-9.111 166.1-2.966 59.581-6.3 119.142-7.851 178.783-1.288 49.569-1.682 99.194-.185 148.762 1.033 34.207 2.711 68.561 7.565 102.468 2.186 15.271 4 36.315 14.968 48.363 5.882 6.454 15.444-3.147 9.58-9.585z"/><path d="M7.5 1209.676q58.149 11.554 116.281 23.193 128.6 25.713 257.145 51.705 128 25.909 255.858 52.481 100.908 21.174 202.1 40.91 130.464 25.524 261.208 49.6c81.2 14.938 162.473 29.551 243.966 42.808 29.4 4.783 58.838 9.412 88.359 13.4 18.079 2.446 36.4 5.253 54.672 5.7a183.72 183.72 0 0 0 44.347-4.879c21.985-5.083 41.15-18.559 58.981-31.781 44.234-32.8 86.05-69.321 127.341-105.693 35.237-31.039 69.815-63.045 101.545-97.706a1115.718 1115.718 0 0 0 117.673-152.983c6.344-9.958 12.618-19.968 18.7-30.091l-12.621-3.418c1.233 13.587 1.829 27.26 2.067 40.9.386 22.054.911 46.02-5.79 67.289-3.772 11.974-14.173 21.661-22 31.169q-19.429 23.606-39.262 46.876-62.94 73.949-129.057 145.118c-27.611 29.778-55.184 59.833-84.246 88.209-23.758 23.2-49.429 44.892-78.281 61.518-35.665 20.55-74.274 29.718-115.2 24.6-23.392-2.928-46.6-8.08-69.893-11.8-87.488-13.98-175.018-27.689-262.486-41.8-116.494-18.786-232.952-37.877-349.128-58.551-104.041-18.515-207.428-39.935-310.5-63.244q-160.665-36.333-320.329-77.012c-36.029-9.232-72.052-18.569-107.8-28.844-10-2.875-20.031-5.752-29.87-9.151a176.336 176.336 0 0 1-4.389-1.574c-2.213-.831-1.167-.946-2.174-.9-2.016.1-.672-2.271-.369.02.427 3.234 1.307 3.423 1.663 2.414.561-1.59-.368-5.143-.5-6.791-1.144-14.112-2.225-28.242-1.922-42.413.2-9.493-.073-21.58 4.435-29.625 6.66-11.887 19.735-20.745 30.635-28.319 48.184-33.483 102.9-58.345 155.8-83.244C321.973 1032.451 443.129 986.6 564.3 940.111c10.955-4.2 22.386-8.016 32.859-13.359 7.767-3.963.92-15.654-6.836-11.7-11.093 5.66-23.5 9.659-35.24 14.143-23.939 9.142-47.927 18.158-71.865 27.3-65.575 25.05-130.92 50.772-195.357 78.637-66.333 28.686-132.492 59.047-195.88 93.832-20.258 11.116-40.489 22.743-58.948 36.707-10.533 7.968-22.268 17.171-28.046 29.423-4.581 9.716-4.615 21.874-4.9 32.375-.4 14.666.7 29.287 1.882 43.892.834 10.3 1.1 14.323 10.637 18.053 22.675 8.866 46.936 14.486 70.385 20.836 98.249 26.6 197.257 50.529 296.341 73.794 109.132 25.624 218.569 50.456 328.748 71.2 114.131 21.487 228.745 40.449 343.352 59.192q153.467 25.1 307.1 49.176c24.716 3.914 49.524 7.5 74.141 12.008 33.751 6.186 66.613 11.543 100.723 4.108 56.676-12.353 104.718-51.666 144.884-91.544 54.975-54.581 107.06-112.461 158.3-170.537q48.313-54.759 94.739-111.155c9.03-11.02 18.225-20.84 21.992-34.965 5.886-22.065 5.781-46.062 5.345-68.725-.257-13.3-.848-26.631-2.05-39.882-.584-6.443-8.951-9.529-12.62-3.418-18.33 30.523-37.663 60.685-58.87 89.292-15.27 20.6-32.237 40.307-48.547 60.114-60.134 73.03-133.5 134.729-206.071 194.879-25.88 21.451-52.371 45.177-82.628 60.427-15.138 7.63-30.482 9.221-46.9 10.876-13.9 1.4-27.427.123-41.3-1.438-25.041-2.817-49.979-6.586-74.878-10.443-76.094-11.788-151.933-25.25-227.7-38.967q-131.688-23.842-263.073-49.326c-71.912-13.9-143.789-28.017-215.5-42.924q-115.733-24.05-231.519-47.806-133.573-27.163-267.233-53.894-80.391-16.107-160.8-32.114l-7.862-1.563c-8.514-1.692-12.157 11.36-3.6 13.061z"/><path d="M1987.228 58.617a209.7 209.7 0 0 1 28.763 9.642c13.29 5.486 28.935 12.729 36.62 25.521.141.235 1.182 2.788.5.866.045.125.094.248.135.374.107.334.221.672.294 1.015.22 1.04.452 2.072.632 3.121.094.552.169 1.106.259 1.658.365 2.239-.1-.984.117.865.193 1.658.386 3.316.552 4.977 1.017 10.128 1.6 20.3 2.133 30.466 3.908 74.89 4.12 150.058 3.748 225.029-.45 90.642-1.859 181.616-9.289 271.993-7.56 91.964-20.565 183.5-35.721 274.49-5.379 32.3-11.061 64.548-17.245 96.7-1.775 9.229-3.578 18.454-5.526 27.647-1.7 8.035-3.1 14.762-10.16 20.256-8.429 6.564-20.024 8.362-29.794 3.842-7.86-3.636-14.748 8.035-6.837 11.7a42.443 42.443 0 0 0 36.212.358c9.411-4.273 17.773-12.09 21.144-22.033 1.774-5.233 2.593-10.9 3.7-16.3 5.505-26.868 10.394-53.869 15.129-80.882 15.811-90.206 29.353-180.934 38.611-272.059 9.471-93.223 12.036-186.99 13.046-280.641.882-81.723.729-163.6-2.772-245.268-.818-19.093-.613-39.312-4.56-58.109-2.527-12.036-13.926-20.879-23.774-27.01-13.426-8.36-28.6-14.167-43.671-18.809-2.862-.881-5.74-1.737-8.645-2.468-8.456-2.125-12.063 10.935-3.6 13.062zM653.94 865.165c-1.947-1.247.424.787-1.279-1.032-.367-.392-.738-.784-1.108-1.173-1.372-1.446.5.881-.451-.579-.685-1.047-1.337-2.1-1.919-3.207-.278-.532-.53-1.075-.79-1.616-.793-1.656.216.7-.431-1.028a104.807 104.807 0 0 1-4.971-21.307c-3.428-25.851-2.9-52.338-2.472-78.345.7-42.133 2.693-84.243 4.617-126.333 2.667-58.367 5.111-116.752 8.139-175.1 4.41-84.99 9.353-170.543 22.033-254.781 3.108-20.65 6.582-41.426 12.294-61.541.927-3.264 1.921-6.51 3.042-9.713.466-1.333.962-2.653 1.465-3.972q.309-.81.647-1.611c.164-.385-.581.957.351-.672.3-.522 1.422-1.8.112-.293a11 11 0 0 1 1.126-1.179c1.47-1.251.224-.289.744-.662.692-.5 1.412-.952 2.142-1.39a42.11 42.11 0 0 1 9.913-4.379c26.4-9.062 55.432-11.624 83.03-14.383 42.985-4.3 86.174-6.56 129.328-8.336 98.469-4.051 197.15-5.616 295.7-5.948 71.5-.24 143.037 2.8 214.432 6.436q122.209 6.228 244.208 16.027c66.37 5.287 132.774 11.017 198.87 19.11 19.221 2.353 38.521 4.753 57.522 8.543a124.5 124.5 0 0 1 14.8 3.751c1.173.388.326.028-.446-.213.146.045.833.5.965.459 1.121-.354.495 1.351.091-.014.339 1.147-1-1.342-.168-.22a4.412 4.412 0 0 1 .567.994c.694 1.834-.171-.591.13.208.227.6.46 1.205.643 1.821 5.063 17.078 5.181 35.354 5.964 53.923 1.309 31.066 1.3 62.19 1.033 93.277-.636 73.594-3.2 147.17-6.132 220.7-2.26 56.662-4 113.429-8.429 169.972-6.1 77.92-14.344 156.14-28.454 233.054-4.559 24.853-9.1 53.6-19.5 75.753a52.849 52.849 0 0 1-2.528 4.835c-.4.672-.827 1.329-1.267 1.979-.865 1.275.632-.823-.635.8a11.055 11.055 0 0 1-1.169 1.172c-.467.438 1.533-1.224.2-.222a6.089 6.089 0 0 1-1.18.628c-.291.127 1.418-.444-.264.075a53.291 53.291 0 0 1-7.95 1.78c.653-.1-.051.019-1.168.132-.877.089-1.753.178-2.631.254-2.041.175-4.086.3-6.133.387-24.036 1.072-48.3-1.071-72.224-3.167-35.9-3.146-71.7-7.382-107.465-11.826-91.787-11.4-183.363-24.462-275.052-36.622-89.688-11.894-179.457-22.8-269.511-31.529-81.451-7.891-162.921-15.542-244.353-23.681-68.831-6.876-137.868-13.26-206.374-22.954-8.784-1.242-17.574-2.53-26.287-4.21-2.779-.537-5.57-1.087-8.3-1.832-.884-.241-1.753-.522-2.63-.786-2.037-.612 1.329.842-.433-.214-7.5-4.491-14.314 7.215-6.836 11.7 4.239 2.54 9.847 3.279 14.6 4.2 9.319 1.8 18.727 3.154 28.124 4.469 30.652 4.289 61.42 7.755 92.184 11.129 82.948 9.1 166.021 17.06 249.082 25.043 82.216 7.9 164.473 15.381 246.492 25.172 97.831 11.678 195.413 25.317 293.052 38.47 78.379 10.558 156.9 21.825 235.78 28.029 22.258 1.751 45.17 3.814 67.477 1.668 6.112-.589 13.022-1.248 18.468-4.4 6.088-3.519 9.382-10.608 12.031-16.807 10.927-25.578 15.619-54.179 20.47-81.392 6.988-39.2 12.251-78.723 16.875-118.268q11.7-100.023 16.024-200.53c2.945-67.969 5.768-135.945 7.666-203.953 1.879-67.332 4.1-135.109.4-202.418-.6-10.85-1.411-21.7-2.922-32.462-.913-6.508-1.845-13.524-4.832-19.477-4.584-9.135-16.915-10.282-25.9-12.02-50.2-9.706-101.787-13.793-152.62-18.63-78.584-7.478-157.314-13.481-236.086-18.59-80.23-5.2-160.549-9.524-240.921-11.788-83.705-2.357-167.469-.752-251.175.877-92.975 1.81-186.758 3.187-279.21 14.092-25.479 3.005-53.409 5.514-77.069 16.251-6.752 3.064-12.277 7.147-15.164 14.119a153.234 153.234 0 0 0-6.141 18.561c-5.771 21.282-9.305 43.194-12.454 64.991-5.214 36.079-8.909 72.369-12.021 108.683-9.486 110.7-13.386 221.831-18.371 332.8-1.84 40.94-3.737 81.913-4.115 122.9-.231 25.013-.377 50.48 3.7 75.239 2 12.179 5.437 26.912 16.571 34.045 7.362 4.709 14.162-7.01 6.837-11.703zm-305.761 235.201c1.139.488 2.3 3.615 2.133 6.064.036-.529-.138 1.609-.3.714-.143-.8.069-.073-.072.052 1.64-1.461 3.852-3.493 4.309-3.834a223.573 223.573 0 0 1 20.9-13.339c22.105-12.947 44.918-24.71 67.767-36.276 42.2-21.366 85.809-43.933 129.38-60.866a119.005 119.005 0 0 1 5.9-2.109c.648-.213 3.116-.5.637-.2a46.921 46.921 0 0 1 2.925-.24 163.2 163.2 0 0 1 18.035.291c20.868 1.1 41.688 3.337 62.455 5.6 62.927 6.856 125.689 15.253 188.435 23.575 64.137 8.507 128.24 17.283 192.436 25.331 40.955 5.134 82 9.431 122.93 14.771 54.552 7.117 109.034 14.773 163.51 22.451q94.548 13.328 189.068 26.847c54.422 7.729 108.845 15.463 163.319 22.817 29.972 4.046 60.312 9.377 90.554 10.976 1.145.06 2.306.151 3.453.1 6.1-.275.555.448-1.867-1.111l-3.113-4.048c.1.72.2-6.627.432-4.709.064.533.435-.566.461-.583a12.46 12.46 0 0 0-1.857 2.183c-2.138 2.451-4.363 4.828-6.582 7.2-7.194 7.707-14.526 15.288-21.881 22.843q-33.969 34.889-68.9 68.831c-24.81 24.163-49.893 48.084-75.8 71.078-2.643 2.347-5.782 4.536-8.146 7.163-1.193 1.327 1.959-1.08 1.348-.722a3.125 3.125 0 0 1-1.29.274c2.158.421.624-.038-.535-.008-4.022.1-8.014.055-12.034-.154-36.05-1.871-72.068-7.354-107.8-12.211-56.685-7.7-113.269-16.158-169.824-24.757q-92.124-14.005-184.159-28.576-77.351-12.16-154.705-24.3-68.31-10.607-136.29-22.959-91.938-16.872-183.572-35.356-88.233-17.622-176.249-36.31c-35.951-7.68-72.157-14.93-107.694-24.4a96.129 96.129 0 0 1-9.34-2.784c-8.16-3.091-11.688 10-3.6 13.061 9.473 3.589 19.8 5.479 29.625 7.8 20.221 4.781 40.518 9.244 60.823 13.655 59.419 12.909 118.98 25.171 178.588 37.172q97.943 19.72 196.157 38.07 72.967 13.5 146.256 24.845 82.291 12.768 164.536 25.844 97.644 15.342 195.361 30.228c57.845 8.737 115.722 17.319 173.727 24.935 20.679 2.714 41.379 5.331 62.13 7.437 11.941 1.211 24.149 2.738 36.177 2.38 3.271-.1 6.876-.189 9.788-1.868 5.875-3.386 11.105-9.574 16.131-14.089q9.873-8.87 19.6-17.9c27.577-25.561 54.539-51.789 81.181-78.322 19.936-19.855 39.814-39.809 59.051-60.345 3.571-3.812 8.6-7.985 11.105-12.666 2.687-5.018-.359-9.928-5.772-10.571-4.631-.55.62.37-1.647.2-25.268-1.856-50.383-5.287-75.5-8.623-51.375-6.824-102.69-14.108-154-21.378q-92.323-13.08-184.635-26.236c-56.195-7.953-112.4-15.864-168.649-23.394-39.274-5.257-78.6-9.778-117.946-14.433-59.407-7.028-118.686-15.15-177.981-23.059-64.68-8.618-129.353-17.318-194.142-25.067-25.055-3-50.131-5.884-75.262-8.166-14.857-1.348-30.058-3.089-45-2.435-11.383.5-21.834 6.2-32.091 10.689-21.858 9.577-43.444 19.787-64.938 30.149-25.2 12.149-50.265 24.6-75.054 37.579-19.327 10.117-38.881 20.266-57.11 32.3-4.608 3.042-9.669 6.208-13.322 10.412-3.517 4.046-4.985 11.536 1.2 14.186 7.925 3.392 14.833-8.273 6.836-11.699zm618.11 180.114q-28.6 28.089-54.364 58.864l6.59-1.742q-20.647-3.246-41.284-6.548-44.223-7.056-88.415-14.3c-29.767-4.9-59.555-9.729-89.156-15.561-30.88-6.083-61.63-12.83-92.313-19.834-17.237-3.935-34.389-8.316-51.656-12.109-.266-.058-.53-.128-.8-.192l2.989 11.319a467.873 467.873 0 0 1 69.752-55.811l-3.419.925c18.555 1.564 37.1 3.323 55.625 5.161q25.647 2.546 51.258 5.446 12.932 1.48 25.846 3.105 3.133.4 6.266.806 1.543.2 3.088.406l1.226.163c1.572.209-.868-.125.729.1q3.7.518 7.377 1.116c25.428 4.151 50.541 10.373 75.481 16.765 25.769 6.6 51.411 13.707 76.971 21.075 13.556 3.908 27.021 8.162 40.6 11.989.2.056.4.121.6.182a6.839 6.839 0 0 0 8.331-4.731 6.916 6.916 0 0 0-4.731-8.331c-14.229-4.352-28.516-8.523-42.815-12.638-29.814-8.578-59.737-16.819-89.856-24.261-14.759-3.647-29.569-7.113-44.479-10.09-14.957-2.987-30.014-5.026-45.149-6.89-35.974-4.431-72.053-8.033-108.15-11.309q-7.035-.639-14.074-1.253c-1.12-.1-2.242-.217-3.364-.29-2.6-.168-4.645 1.148-6.751 2.545a490.976 490.976 0 0 0-57.052 44.211q-6.55 5.9-12.881 12.032c-3.6 3.481-1.948 10.119 2.989 11.32 17.618 4.284 35.283 8.384 52.96 12.417 34.538 7.88 69.16 15.47 103.968 22.072 33.8 6.411 67.826 11.736 101.782 17.264q44.051 7.17 88.132 14.145c5.559.881 11.115 1.8 16.681 2.635a8 8 0 0 0 5.313-.667c1.607-.849 2.773-2.735 3.924-4.1q1.537-1.82 3.084-3.629 5.929-6.939 12.014-13.743 11.9-13.311 24.382-26.093 6.1-6.246 12.331-12.361a6.773 6.773 0 0 0-9.578-9.578z"/><path d="M877.594 342.43q14.689-13.911 30.214-26.9 7.76-6.489 15.717-12.736 1.817-1.425 3.643-2.838c.773-.6-1.338 1.028-.153.118l1.047-.8q1.047-.8 2.1-1.6 4.026-3.061 8.1-6.06a656.191 656.191 0 0 1 67.569-43.633q19.745-11.1 40.228-20.8c3.21-1.522 4.294-6.375 2.429-9.266-2.127-3.3-5.832-4.058-9.266-2.43a655.258 655.258 0 0 0-70.793 39.093 670.077 670.077 0 0 0-66.472 48.294q-17.482 14.4-33.936 29.991a6.833 6.833 0 0 0 0 9.578 6.91 6.91 0 0 0 9.577 0zM926.9 198.328a14.169 14.169 0 0 0-8.544 7.522 17.163 17.163 0 0 0-1.058 11.718 14.064 14.064 0 0 0 8.046 9.192c4.688 1.979 9.668 1.66 14.588.949a45.316 45.316 0 0 0 21.454-9.735 44.024 44.024 0 0 0 7.993-8.512c2.5-3.376 4.664-7.383 5.263-11.578a16.654 16.654 0 0 0-1.35-10.1 13.379 13.379 0 0 0-5.231-5.364c-4.715-2.7-11.185-2.584-15.022 1.628-2.386 2.618-2.781 7.024 0 9.577 2.6 2.387 7.029 2.8 9.578 0 .608-.667.72-.225-.538.308l.23-.145q.9-.474-.886.341a3.518 3.518 0 0 0 .781-.2c-.084.08-1.866.085-.984.17.818.078.875.351-.685-.147.262.083.566.14.835.2 1.1.26-1.344-.732-.668-.31.287.179.606.336.9.5 1.024.583-1.252-1.183-.435-.335.194.2.4.455.614.635-1.234-1.044-.81-1.172-.537-.664.478.889-.076.507-.158-.578a6.9 6.9 0 0 0 .359 1.2c.416 1.353.042-1.576-.037-.167-.015.266 0 .561 0 .825q-.087 1.109.119-.559c-.043.277-.094.553-.155.827-.152.7-.392 1.363-.6 2.044-.446 1.441.707-1.372.017-.027-.2.384-.377.774-.582 1.154a37.5 37.5 0 0 1-2.519 3.93c-.63.889.308-.408.373-.472-.26.257-.477.595-.713.876q-.726.865-1.5 1.685a38.29 38.29 0 0 1-3.154 2.968c-.24.2-.486.4-.728.6-1.078.889 1.315-.948.175-.141-.514.364-1.021.734-1.544 1.083a39.256 39.256 0 0 1-3.9 2.287c-.672.344-1.357.657-2.043.972-1.007.462.511-.207.576-.242a9 9 0 0 1-1.053.41 38.046 38.046 0 0 1-4.32 1.324q-.915.222-1.84.4c-.371.07-.743.127-1.114.193-1.4.249 1.722-.177.308-.038a33.035 33.035 0 0 1-4.748.211c-.353-.016-.7-.054-1.056-.079-.941-.066 1.718.421.345.014-.4-.117-.808-.224-1.208-.331-1.383-.368 1.309.772.09.009-.149-.093-.3-.19-.457-.279-.963-.563 1.313 1.207.548.409-.173-.18-.352-.39-.537-.557 1.363 1.227.787 1.1.38.437-.113-.184-.208-.375-.314-.562-.522-.923.666 1.889.194.419-.252-.786-.244-2.407-.139 0-.028-.626-.056-1.231-.037-1.859.016-.523.305-1.146-.154 1.005.074-.348.123-.7.213-1.044.067-.257.154-.506.23-.76.318-1.065-.771 1.572-.283.644.121-.232.234-.465.368-.691.381-.642 1.149-1.123-.315.314.151-.149.282-.323.432-.475.5-.509 1.214-.692-.5.3.223-.13.427-.292.654-.419 1.353-.763-1.438.509-.407.15 3.338-1.161 5.908-4.69 4.73-8.331-1.069-3.3-4.748-5.976-8.331-4.73zm-.608 149.072c-6.517 4.894-12.882 11.923-12 20.733.423 4.2 1.918 8.5 5.273 11.292a16.21 16.21 0 0 0 14.349 3.21 29.656 29.656 0 0 0 10.652-5.252 91.237 91.237 0 0 0 9.482-7.808 78.714 78.714 0 0 0 7.266-7.941c2.755-3.459 5.686-7.042 7.247-11.228 2.246-6.02-.863-12.029-5.717-15.576-4.1-2.993-9.508-3.276-14.391-3.267-3.542.006-6.937 3.11-6.773 6.772a6.89 6.89 0 0 0 6.773 6.773c.807 0 1.615 0 2.422.02.367.01.734.024 1.1.045a5.425 5.425 0 0 0 1.313.109c-.1.077-1.7-.327-.5-.054.425.1.851.171 1.272.286.28.077.553.171.831.256q1.056.4-.469-.214.334.16.656.348c.205.12.419.305.629.4l-.774-.607c.193.158.378.324.557.5a3.567 3.567 0 0 0 .511.539l-.6-.793q.213.3.4.612c.743 1.014-.37-1.263-.152-.474a4.444 4.444 0 0 0 .239.862c-.407-.7-.223-1.588-.142-.544q-.033.765.122-.789a6.953 6.953 0 0 1-.219.8c-.329 1.344.576-1.015.1-.268-.188.3-.338.624-.52.926-.364.6-.762 1.189-1.16 1.771s-.8 1.157-1.215 1.728q-.372.513-.752 1.02c-.126.169-.253.338-.382.5q-.461.6.414-.534a8.227 8.227 0 0 0-1.325 1.644q-.739.9-1.507 1.768-1.535 1.744-3.169 3.4a78.411 78.411 0 0 1-6.745 6.074c-.127.1-1.258.918-.31.254s-.2.144-.323.239q-.845.633-1.707 1.243a32.866 32.866 0 0 1-3.9 2.409c-.231.119-.994.344-1.137.547.357-.506 1.268-.474.461-.207-.649.215-1.287.445-1.954.6l-.392.087q-1.1.2.624-.055a6.6 6.6 0 0 0-.975.06 4.45 4.45 0 0 0-.967-.028q1.742.273.659.073-.285-.06-.562-.145c-.99-.289-.17-.447.335.19a4.852 4.852 0 0 0-.927-.533c-.586-.343-.049-.509.588.456a5.752 5.752 0 0 0-.695-.692c-.446-.445-.059-.622.452.6-.119-.285-.37-.565-.52-.839a6.537 6.537 0 0 0-.3-.591q.676 1.669.31.689a11.052 11.052 0 0 1-.36-1.297c-.375-1.755.049 1.3.012.118a5.231 5.231 0 0 1 .048-2.042c.012-.025-.374 1.866-.085.794.123-.455.217-.91.366-1.359.081-.246.2-.491.269-.739-.543 1.9-.141.39.158-.148a18.536 18.536 0 0 0 1.285-1.971c-.048.125-1.063 1.255-.321.444.312-.343.609-.7.929-1.034a27.562 27.562 0 0 1 1.728-1.656q.375-.33.76-.649.306-.255.62-.5-1.273.975-.425.334a7.41 7.41 0 0 0 3.112-4.047 6.923 6.923 0 0 0-.683-5.219c-1.8-2.793-6.236-4.705-9.266-2.43z" fill="#b1b1b1"/></svg></g><g transform="translate(1161.0 983.0) rotate(0.0 117.0 78.0) scale(0.5334768097174852 0.5310005616352094)"><svg width="438.632" height="293.785" viewBox="0 0 438.632 293.785"><path d="M129.814 53.292c1.222-.758 73.207-42.936 120.483-45.581s114.45 27.252 134.294 52.5 53.928 60.35 46.824 88.727-3.718 23.936-50.773 55.013-101.727 63.322-130.661 69.449S130.5 287.012 130.5 287.012l-85.7-9.567S2.612 264.362 6.786 240.932s35.18-100.089 35.18-100.089 32.423-42.355 34.652-44.638S126.2 55.6 126.2 55.6z" fill="#b1b1b1"/><path d="M13.559 246.815q.327-4.417.828-8.818.136-1.2.288-2.4l.1-.8c.188-1.474-.235 1.678-.029.207s.416-2.918.646-4.374q1.378-8.726 3.447-17.324A235 235 0 0 1 29.676 179.7q.417-1.025.843-2.046c.178-.427.638-1.384-.137.32.166-.365.315-.741.474-1.11q.874-2.032 1.785-4.051 1.821-4.036 3.787-8.007 3.935-7.949 8.421-15.608t9.492-15.007q2.5-3.671 5.128-7.256 1.313-1.792 2.656-3.563c.406-.536.828-1.062 1.227-1.6-1.084 1.475-.471.61-.193.254q.435-.558.872-1.113a264.546 264.546 0 0 1 23.8-26.351q6.5-6.3 13.423-12.142 3.5-2.961 7.093-5.808.818-.647 1.638-1.287c.317-.247 1.51-1.151-.054.038.221-.168.44-.338.66-.507q1.983-1.519 3.993-3a299.883 299.883 0 0 1 30.746-19.9q7.988-4.512 16.229-8.553c5.5-2.7 11.132-5.091 16.712-7.624-.114.052-1.524.638-.463.2l1.158-.482q.964-.4 1.932-.793 2.324-.945 4.66-1.855 4.188-1.632 8.418-3.152 8.661-3.113 17.478-5.763a359.721 359.721 0 0 1 35.524-8.731q4.512-.868 9.044-1.625a6.8 6.8 0 0 0 4.048-3.112 6.917 6.917 0 0 0 .682-5.219c-1.225-3.786-4.576-5.359-8.331-4.73a355.853 355.853 0 0 0-71.631 19.728 322.888 322.888 0 0 0-66.617 35.309 280.583 280.583 0 0 0-54.882 49.816 264.076 264.076 0 0 0-38.676 61.34A241.653 241.653 0 0 0 .842 238q-.505 4.4-.828 8.818c-.262 3.541 3.3 6.928 6.772 6.773a6.941 6.941 0 0 0 6.773-6.773z"/><path d="M1.854 256.1c9.478 14.965 26.4 23.293 42.8 28.407 17.729 5.528 36.122 7.134 54.568 8.143 20.165 1.1 40.384 1.55 60.567.679a448.1 448.1 0 0 0 52.9-5.491c17.457-2.851 34.727-6.726 51.885-11q3.5-.872 6.984-1.763a6.774 6.774 0 1 0-3.6-13.061c-17.242 4.4-34.578 8.485-52.1 11.608q-6.215 1.108-12.458 2.049-3.024.454-6.053.866c-1.1.151.686-.091.73-.1-.3.043-.595.079-.893.118q-.714.094-1.429.185-1.611.207-3.224.4-12.708 1.522-25.492 2.274a567.242 567.242 0 0 1-57.837.179c-10.185-.437-20.424-.861-30.566-1.932q-1.428-.151-2.855-.324-.681-.083-1.362-.17c-.228-.029-.456-.061-.685-.089 2.274.277.9.121.423.054q-2.982-.417-5.948-.932-6.293-1.093-12.493-2.652a136.073 136.073 0 0 1-12.17-3.672q-1.464-.52-2.912-1.079-.678-.261-1.353-.532c-.515-.207-2.473-1.06-.389-.147-1.91-.837-3.808-1.69-5.669-2.632a72.059 72.059 0 0 1-10.139-6.167c-.18-.132-.357-.267-.537-.4-.846-.62.555.436.578.452-.4-.279-.783-.619-1.162-.932q-1.137-.936-2.222-1.934a46.042 46.042 0 0 1-3.893-4.046c-.274-.323-.537-.653-.805-.979-.656-.8.477.624.477.623a3.733 3.733 0 0 1-.378-.5 40.634 40.634 0 0 1-1.589-2.335c-1.894-2.991-6.116-4.461-9.266-2.43-2.993 1.93-4.458 6.065-2.43 9.266z"/><path d="M277.131 273.375c18.924-9.065 37.59-18.677 55.562-29.523a608.74 608.74 0 0 0 55.33-38.139c12.957-9.921 25.67-20.149 38.241-30.553 2.74-2.268 2.522-7.262 0-9.578-2.913-2.674-6.655-2.419-9.578 0q-16.455 13.619-33.3 26.746c1.707-1.328-.5.388-.908.7l-1.935 1.483q-1.906 1.457-3.82 2.9-3.561 2.69-7.152 5.339-6.951 5.127-14.031 10.077a533.24 533.24 0 0 1-53.056 32.619c-10.59 5.684-21.352 11.04-32.19 16.233-3.2 1.534-4.3 6.366-2.43 9.266a6.952 6.952 0 0 0 9.266 2.429z"/><path d="M254.218 13.8a159.674 159.674 0 0 1 29.169 1.028c.489.063 1.525.289-.409-.056.262.046.531.074.794.111q.792.114 1.584.236 1.875.288 3.744.623 3.429.614 6.828 1.38 6.962 1.57 13.762 3.767 3.393 1.095 6.734 2.339 1.578.588 3.145 1.208.829.328 1.656.666c.475.194 2.548 1.16.58.233 4.271 2.012 8.586 3.868 12.769 6.07a188.4 188.4 0 0 1 24.451 15.447q1.4 1.042 2.79 2.109c.7.533-1.082-.845-.392-.3.27.213.543.424.813.637q.813.639 1.62 1.287 2.838 2.28 5.6 4.655 4.624 3.98 9.049 8.185a243.431 243.431 0 0 1 18.072 19.065q2.115 2.495 4.154 5.052.524.657 1.042 1.319c.154.2.3.394.46.59-1.16-1.465-.626-.814-.375-.485q1.077 1.407 2.131 2.83a165.405 165.405 0 0 1 7.369 10.816c2.268 3.643 4.381 7.385 6.277 11.237q.654 1.327 1.271 2.674.324.707.638 1.418c.221.5.967 2.458.127.273.706 1.837 1.452 3.651 2.087 5.515a70.926 70.926 0 0 1 2.853 11.12c.078.465.144.931.217 1.4.137.869-.236-1.93-.1-.716.024.206.05.412.073.618q.158 1.382.244 2.77a49.824 49.824 0 0 1 .045 5.479q-.061 1.278-.194 2.553c-.063.6-.374 2.289.04-.161-.083.492-.149.988-.236 1.48a41.7 41.7 0 0 1-1.284 5.248q-.363 1.155-.8 2.288c-.1.253-.765 1.88-.229.6s-.211.44-.35.733a42.09 42.09 0 0 1-2.76 4.934q-.751 1.158-1.575 2.267c-.989 1.334.743-.905.049-.058-.356.435-.71.87-1.074 1.3a7.227 7.227 0 0 0-1.983 4.789 6.89 6.89 0 0 0 1.983 4.789c2.525 2.318 7.125 2.881 9.578 0a49.713 49.713 0 0 0 11.42-22.849 60.592 60.592 0 0 0-.865-25.274c-4.19-17.713-14.382-33.594-25.468-47.753a235.821 235.821 0 0 0-37.6-38.018 193.3 193.3 0 0 0-53.175-30.89A163.2 163.2 0 0 0 261.691.008q-3.739.038-7.473.248c-3.532.194-6.943 2.976-6.773 6.773.157 3.5 2.984 6.98 6.773 6.772zM126.2 66a369.392 369.392 0 0 1 44.566-2.124q11.03.164 22.032 1.074 5.611.47 11.2 1.147c.872.106 1.743.219 2.614.33 1.665.211-1.562-.22.1.012.474.067.949.132 1.423.2q2.846.405 5.683.867a262.423 262.423 0 0 1 40.061 9.744q4.664 1.54 9.265 3.267 2.3.862 4.58 1.773 1.09.435 2.177.88.593.243 1.184.49l.788.329q-1.345-.569-.635-.266c6.074 2.62 12.053 5.438 17.893 8.547a215.367 215.367 0 0 1 18.991 11.387q4.593 3.09 9.017 6.424.341.256.679.515t.677.517q-1.212-.939-.359-.277 1.175.918 2.341 1.848 2.161 1.735 4.275 3.529a7.231 7.231 0 0 0 4.788 1.984 6.889 6.889 0 0 0 4.789-1.984c2.314-2.52 2.886-7.132 0-9.578a228.8 228.8 0 0 0-71.6-40.645c-27.55-9.794-56.8-14.553-85.974-15.516a364.756 364.756 0 0 0-50.555 1.978 7.345 7.345 0 0 0-4.789 1.984 6.883 6.883 0 0 0-1.983 4.789c.15 3.348 3 7.174 6.772 6.772z"/><path d="M238.307 69.068q8.984-5.745 18.445-10.686 4.727-2.463 9.562-4.713 2.311-1.077 4.646-2.1 1.272-.559 2.552-1.1c1.262-.54-1.286.529.091-.037.429-.176.857-.355 1.286-.531a7.444 7.444 0 0 0 4.047-3.112 6.922 6.922 0 0 0 .683-5.219 6.849 6.849 0 0 0-3.113-4.047c-1.5-.792-3.574-1.359-5.218-.683a250.288 250.288 0 0 0-39.817 20.539c-2.982 1.907-4.467 6.107-2.43 9.266 1.923 2.983 6.073 4.472 9.266 2.43z"/></svg></g><g transform="translate(62.0 460.0) rotate(0.0 554.0 367.5) scale(0.5299802357551071 0.5301072042650912)"><svg width="2090.644" height="1386.512" viewBox="0 0 2090.644 1386.512"><path d="M912.345 10.72s139.253-6.113 203.873.931 275.463 56.191 332.255 68.713 174.506 33.571 235.342 54.942 124.12 50.171 163.624 68.813 58.716 24.323 58.716 24.323 27.558-34.168 34.346-50.957 18.87-47.621 18.87-47.621 16.232 29.733 25.1 54.675S2021.7 305.7 2025.259 334.33s6.287 135.607 6.287 135.607l-15.788 117.933s34.255 13.643 44.665 26.82 31.292 52.331 23.448 74.02-44.825 89.186-75.557 105.031-41.667 19.443-41.667 19.443-4.16 23.652-29.027 38.455-136.483 59.944-268.321 69.615-262.538 10.935-262.538 10.935L1047.1 912.762l-232.665-25.635-219.183-56.637s-124.774-49.842-144.338-78.92-36.023-73.04-36.023-73.04-37.579 31.47-55.254 49.989S245.441 845.027 202.27 905.024c-57.3 79.635-89.1 155.031-31.137 195.932 46.476 32.794 69.631 49.263 153.5 49s264.65-14.164 264.65-14.164 158.288.228 247.519 8.619c110.313 10.373 227.018 53.429 227.018 53.429s61.863 18.938 84.234 66.681 32.746 81.118 8.435 98.477-63.23 27.723-109.476 16.73-148.466-46.443-148.466-46.443L764.8 1299.307l-143.38-28.547-108.378-8.233-107.884 11.273-149.978-14.455s-91.489-16.159-132.238-39.165-101.394-46.924-108.026-116.005-20.5-96.764 35.669-171.124 135.282-148.885 135.282-148.885l96.219-68.422 100.5-64.146 22.577-17.1s-.86-77.911 2.993-118.1 3.647-109.767 47.208-187.623 95.603-156.055 148.358-198.182 67.949-67.255 148.2-88.079S912.345 10.72 912.345 10.72z" fill="#fff"/><path d="M1918.268 402.993c10.7-13.672 22.941-26.97 38.943-33.7s40.462-1.606 53.748 9.567c10.735 9.029 18.762 29.047 18.5 41.814-.249 12.333 1.2 30.723-4.2 41.813-7.087 14.552-17.633 25.064-31.908 32.695-8.52 4.554-26.372 13.641-35.987 14.573-21.258 2.06-82.3 14.971-85.262-18.742-2.529-28.774 29.898-67.221 46.166-88.02zm-254.199-122.727c-13.018-17.058-21.466-28.958-30.278-48.523-4.828-10.722-8-24.367-.465-33.39 3.919-4.69 21.218-14.486 27.18-15.827 60.582-13.624 118.248 7.43 160.606 53.624 8.243 8.99 15.573 19.03 19.949 30.415 4.01 10.433 5.426 21.707 5.626 32.883.412 23.04-6.256 49.016-26.4 60.2-21.41 11.879-47.889 2.192-70.331-7.6-15.668-6.836-31.55-26.434-47.813-42.424-9.968-9.798-26.65-14.391-38.074-29.358z" fill="#4e4e4e"/><path d="M1858.148 555.614c.362-1.166-1-2.086-2.129-2.544-8.332-3.377-17.173-6.193-26.145-5.6s-18.14 5.225-21.96 13.364c-2.112 4.5-2.441 9.6-2.569 14.572-.2 7.613.269 15.969 5.384 21.611 5.222 5.761 13.712 6.964 21.476 7.392 5.6.309 11.341.386 16.685-1.325 12.97-4.152 20.916-19.841 16.587-32.754" fill="#b1b1b1"/><path d="M1901.842 591.452c-26.4 2.163-37.446-8.427-39.51-35.143-1.2-15.466 13.363-23.9 27.906-22.463 11.781 1.168 22.348 5.5 30.414 17.473 5.412 8.029 9.462 20.516 5.256 29.238-4.014 8.325-14.855 10.143-24.066 10.895z" fill="#b1b1b1"/><path d="M1996.276 424.77c3.874-.486 9.27.168 9.589 4.059.137 1.666-.864 3.19-1.849 4.541a120.861 120.861 0 0 1-42.421 36.021c-9.229 4.738-19.425 10.224-29.79 11.8-5.844.89-8.967-.5-14.245-1.358a73.653 73.653 0 0 0-21.958-.309c3.346-.4 18.342-16.589 21.9-19.593 6.789-5.731 12.325-12.673 19.818-17.754 17.489-11.855 38.444-14.833 58.956-17.407z" fill="#fff"/><g fill="#b1b1b1"><path d="M1238.553 28.836c-49.2-12.331-104.733 5.758-137.232 44.7s-40.359 96.816-19.421 143.017c9.319 20.566 23.627 38.5 39.181 54.862 11.428 12.024 23.834 23.494 38.67 30.913 31.762 15.884 69.738 11.077 104.255 2.731 42.4-10.253 84.206-25.583 119.593-51.1s64.045-62.046 74.131-104.491c5.3-22.324 4.088-48.956-13.118-64.137-13.9-12.265-33.946-13.52-52.256-16.419a229.459 229.459 0 0 1-71.872-24.085m44.147 430.204c15.933 3.479 32.8.988 47.921-5.128 8.589-3.475 16.975-8.333 22.35-15.88 6.551-9.2 7.781-21.423 5.392-32.461s-8.051-21.087-14.347-30.462c-11.821-17.6-27.429-34.3-47.975-39.525-71.607-18.201-83.008 108.242-13.341 123.456zm-139.726-107.863c-1.587 10.739 11.313 20.2 21.484 16.4 10.641-3.971 13.856-20.492 5.082-27.7s-25.854-1.085-26.566 11.3M971.806 131.65a34.2 34.2 0 0 0 26.694 54.256c6.314.184 12.971-1.6 17.335-6.166 10.486-10.973 2.536-29.545 7.4-43.922 1.618-4.783 4.682-9.09 5.479-14.076 1.645-10.287-7.787-20.1-18.139-21.268s-20.519 4.563-27.337 12.439-8.646 13.136-11.432 18.737"/></g><path d="M442.474 360.007a243.387 243.387 0 0 0 116.493-18.6c16.245-6.952 32.248-16.146 42.508-30.532 15.522-21.765 15.36-51.571 29.843-74.041s40.826-33.73 61.394-50.8c31.025-25.748 48.872-66.612 46.672-106.87-.3-5.57-1.084-11.423-4.46-15.864-8.35-10.986-25.641-6.735-38.065-.731-107.477 51.938-181.643 153.425-243.944 255.245m416.911 339.525c-1.432 24.218-2.555 49.9 9.062 71.2 6.527 11.966 16.594 21.544 26.5 30.911 15.232 14.411 32.8 29.77 53.766 29.264 24.023-.58 42.349-22.034 52.373-43.873 12.9-28.1 17.569-60.39 10.364-90.457-7.426-30.993-35.765-78.419-71.53-81.795-50.792-4.789-77.975 41.456-80.535 84.75zm-87.091 621.826c13.742 25.973 43.683 38.836 72.323 45.41s58.832 9.042 84.844 22.708c9.52 5 14.695 3.583 24.272 8.475 17.272 8.823 34.334 10.56 53.408 14.074 39.279 7.237 73.809 17.842 112.028 6.246 36.664-11.125 50.88-27.406 41.263-64.493-2.524-9.731-4.631-25.031-10.394-33.269-27.871-39.839-51.713-61.933-96.66-80.474-64-26.4-157.156-58.969-227.018-53.429-56.654 4.492-79.554 86.576-54.066 134.752z" fill="#626262"/><path d="M1487.717 262.155q7.716 33.245 12.946 67 .729 4.715 1.409 9.436.348 2.423.684 4.845l.3 2.181c.055.4.112.808.164 1.213l-.112-.831c.044.323.087.647.129.97a7.462 7.462 0 0 0 1.984 4.789 6.772 6.772 0 0 0 9.578 0c1.121-1.222 2.213-3.06 1.983-4.789-3.084-23.239-6.963-46.36-11.778-69.305q-2.01-9.576-4.225-19.109a6.83 6.83 0 0 0-8.331-4.73 6.92 6.92 0 0 0-4.73 8.331z"/><path d="m1491.781 265.073 82.16 24.836 23.406 7.076a6.84 6.84 0 0 0 8.331-4.731 6.913 6.913 0 0 0-4.73-8.331l-82.16-24.836-23.406-7.075a6.84 6.84 0 0 0-8.331 4.73 6.913 6.913 0 0 0 4.73 8.331z"/><path d="M1952.841 128.064c-8.246 21.043-15.588 42.842-26.1 62.9-4.581 8.744-9.868 17.188-16.6 24.451-1.007 1.087-7.453 6.027-7.424 7.187-.016-.626 2.768-.752 2.937-.815-1.89.7.282.242-1.067-.075a70.765 70.765 0 0 1-7.038-2.078c-11.032-3.835-21.632-9-32.117-14.1-31.063-15.113-61.264-31.467-93.133-44.912a1017.053 1017.053 0 0 0-111.551-39.393c-45.877-13.333-92.448-22.541-139.24-31.924-42.049-8.433-83.819-18.156-125.393-28.675-65.67-16.616-130.978-35.855-198.03-46.24-51.351-7.953-103.468-12.217-155.386-13.8-67.224-2.047-134.9.973-201.234 12.54-66.864 11.659-134.139 32.537-190.7 71.014C616.3 107.6 585 136.842 556.616 167.273a622.369 622.369 0 0 0-72.331 93.817c-35.939 57.359-62.179 121.316-74.731 187.923-6.433 34.137-8.859 68.992-10.385 103.651-1.678 38.131-1.273 76.814 6.194 114.378 6.421 32.3 18.931 63.527 40.362 88.851 18.484 21.843 42.886 36.731 68.354 49.081 61.89 30.012 129.229 49.564 195.748 66.233 75.65 18.957 152.819 33.485 230.517 40.715 73.749 6.863 147.957 10.521 221.878 15.1 75.421 4.673 150.893 8.994 226.425 11.406 65.549 2.092 130.607.739 196.084-3.194a1585.39 1585.39 0 0 0 186.035-21.958 789.754 789.754 0 0 0 127.657-33.969c28.824-10.41 63.286-28.29 72.713-60.012 7.8-26.23 2.857-70.786-30.195-74.824-15.371-1.878-31.378.62-46.531 3.211-20.025 3.425-39.9 7.545-60 10.561-78.868 11.83-160.583 10.308-238.581-7-25.48-5.654-50.6-12.793-76.067-18.514-8.49-1.908-12.115 11.148-3.6 13.061 26.008 5.843 51.659 13.163 77.7 18.873a628.7 628.7 0 0 0 97.466 13.165 687.966 687.966 0 0 0 135.4-4.9c21.538-2.965 42.91-6.825 64.26-10.9 14.117-2.7 28.631-4.991 43.047-4.535 6.845.216 12.868.931 17.613 6.323 6.8 7.722 7.982 18.4 8.385 28.239.537 13.124-.534 25.515-8.383 36.534-21.844 30.662-63.357 40.679-97.333 50.6-68.308 19.953-138.861 31.085-209.633 37.929-63.7 6.161-128.154 9.582-192.159 9.117-68.157-.5-136.307-3.972-204.35-7.71-76.282-4.191-152.516-9.211-228.734-14.415-33.759-2.305-67.566-4.22-101.2-8.014-38.526-4.345-76.842-10.546-114.893-17.953-74.148-14.434-147.967-33.054-219.078-58.694-53.153-19.165-112.542-41.739-142.809-92.73-17.624-29.689-25-64.385-27.884-98.452-3.321-39.258-1.271-78.833 1.818-118.034 4.982-63.212 20.611-124.4 47.6-181.891 33.26-70.855 81.338-133.9 138.807-186.858 27.712-25.537 56.975-48.779 90.427-66.332 30.085-15.786 62.182-27.423 94.95-36.246C906.212 6.854 1034.121 8.471 1155.8 22.37c58.434 6.675 115.322 19.906 172.182 34.649 36.5 9.463 72.965 19.055 109.657 27.754 45.167 10.707 90.757 18.97 136.139 28.623 77.17 16.416 153.328 39.992 224.789 73.663 29.229 13.772 57.2 30.2 87.132 42.464 6.248 2.56 16.9 8.294 23.872 4.767 6.869-3.474 12.817-11.966 17.357-18.029a147.111 147.111 0 0 0 14.786-25.031c9.212-19.316 16.385-39.657 24.186-59.565 3.182-8.119-9.911-11.64-13.061-3.6z"/><path d="M1956.856 134.011c19.582 45.493 36.271 92.053 48.5 140.074 6.26 24.57 12 49.341 15.117 74.531 3.395 27.45 4.526 55.135 4.66 82.778.222 46.031.008 93.278-11.151 138.025a242.228 242.228 0 0 1-16.2 45.372c-8.641 18.164-19.157 35.443-30.16 52.255-18.144 27.721-38.237 54.809-61.333 78.657-.35.361-.7.723-1.055 1.078-6.169 6.174 3.406 15.755 9.578 9.578 5.524-5.529 10.688-11.45 15.775-17.376a622.093 622.093 0 0 0 38.145-49.431c22.489-32.264 43.565-66.637 55.009-104.542 12.971-42.957 14.381-88.664 14.864-133.2.3-28.062-.134-56.171-2.586-84.14a557.756 557.756 0 0 0-13.367-79.923 924.536 924.536 0 0 0-45.7-140.681q-4.128-9.978-8.4-19.893c-1.446-3.36-6.384-4.115-9.266-2.429-3.473 2.031-3.882 5.892-2.429 9.266z"/><path d="M1905.458 479.958c.089-.222.17-.483.281-.7-.034.065-.7 1.589-.245.581.178-.4.353-.8.537-1.192q.663-1.43 1.411-2.817a55.718 55.718 0 0 1 2.949-4.86q.768-1.132 1.588-2.227c.109-.146.22-.291.33-.436.5-.671-.917 1.159-.389.508.344-.424.683-.851 1.033-1.27 1.2-1.443 2.474-2.83 3.8-4.165s2.7-2.62 4.125-3.851q1.034-.9 2.1-1.755c.378-.306.761-.606 1.142-.908.569-.452-.714.567-.648.5a7.848 7.848 0 0 1 .874-.66 102.294 102.294 0 0 1 9.439-6.217 131.514 131.514 0 0 1 9.871-5.207q2.463-1.175 4.964-2.263.636-.277 1.274-.55c1.311-.559-1.243.517-.189.081q1.381-.573 2.768-1.128a162.486 162.486 0 0 1 27.939-8.39q3.95-.8 7.941-1.371a4.178 4.178 0 0 1 .908-.127l-.892.121.681-.086q1.02-.126 2.043-.238 1.926-.21 3.857-.361a121.238 121.238 0 0 1 16.015-.207 6.815 6.815 0 0 0 6.772-6.772 6.924 6.924 0 0 0-6.772-6.773c-20.2-1.086-40.621 2.971-59.459 10.119-15.455 5.864-30.675 13.457-42.768 24.937a67.325 67.325 0 0 0-16.335 24.081 6.8 6.8 0 0 0 .683 5.219 6.772 6.772 0 0 0 9.266 2.429 7.847 7.847 0 0 0 3.112-4.047z"/><path d="M1895.51 484.005c4.243 3.129 9.74 4.181 14.9 4.356a77.513 77.513 0 0 0 14.109-1.124 105.637 105.637 0 0 0 24.551-7.018 163.831 163.831 0 0 0 47.364-30.4 161.656 161.656 0 0 0 20.368-22.409 6.8 6.8 0 0 0 .683-5.219 6.9 6.9 0 0 0-3.112-4.047 6.834 6.834 0 0 0-5.219-.683 7.923 7.923 0 0 0-4.047 3.113c-.3.4-.608.792-.907 1.191.051-.067 1.048-1.337.367-.478-.157.2-.311.4-.468.594q-.945 1.194-1.917 2.368-1.976 2.387-4.051 4.687-4.2 4.656-8.753 8.965-4.66 4.415-9.652 8.463-1.278 1.036-2.576 2.048c-.932.731 1.215-.927-.1.073q-.738.563-1.483 1.117-2.65 1.973-5.38 3.838a148.256 148.256 0 0 1-22.454 12.718q-.736.333-1.476.657c-.473.207-2.147.831-.232.111-1 .375-1.978.814-2.973 1.2q-2.959 1.154-5.979 2.146a102.683 102.683 0 0 1-11.837 3.141q-1.685.338-3.381.613c-.562.091-1.125.175-1.688.257-.442.065-1.3.126.676-.09-.25.028-.5.063-.749.093-2.28.273-4.574.463-6.87.528-1.206.035-2.413.03-3.617-.037-.6-.033-1.194-.1-1.793-.151-.766-.063.9.1.816.112a4.828 4.828 0 0 1-1.166-.207 23.454 23.454 0 0 1-3.179-.927c-.81-.289 1.307.632.553.219-.283-.155-.579-.287-.861-.445a16.025 16.025 0 0 1-1.636-1.071 6.814 6.814 0 0 0-5.219-.683 6.907 6.907 0 0 0-4.047 3.112 6.834 6.834 0 0 0-.683 5.219 7.826 7.826 0 0 0 3.113 4.047zm-262.44 10.505q1.66-.783 3.341-1.523l.746-.325c1.3-.572-1.188.49-.309.127.625-.258 1.25-.516 1.877-.767q3.468-1.386 7.013-2.569a130.274 130.274 0 0 1 14.292-3.878q3.508-.741 7.052-1.291.885-.138 1.771-.263c.488-.069 1.548-.137-.421.054.262-.026.527-.069.788-.1q1.873-.235 3.753-.416a137.72 137.72 0 0 1 14.476-.633 142.852 142.852 0 0 1 14.678.887q.891.1 1.78.21l.79.1c.955.119-1.82-.259-.418-.056 1.184.172 2.367.346 3.548.54q3.742.616 7.451 1.424 7.146 1.554 14.119 3.794 3.543 1.137 7.027 2.443 1.7.636 3.381 1.312.748.3 1.494.609c.247.1.5.215.745.31-1.845-.7-.565-.237-.132-.05a158.759 158.759 0 0 1 29.294 16.57 6.838 6.838 0 0 0 5.219.683 6.909 6.909 0 0 0 4.047-3.113c1.846-3.493.658-7.061-2.429-9.266a162.045 162.045 0 0 0-56.043-25.64 150.1 150.1 0 0 0-62.245-1.827 137.086 137.086 0 0 0-33.519 10.958c-3.214 1.515-4.291 6.379-2.43 9.266 2.132 3.306 5.829 4.05 9.266 2.43z"/><path d="M1624.863 493.451a98.133 98.133 0 0 0 26.292 15.573 115.067 115.067 0 0 0 25.069 6.733 249.449 249.449 0 0 0 64.039 2.105 255.722 255.722 0 0 0 36.162-6.16 6.838 6.838 0 0 0 4.73-8.331 6.911 6.911 0 0 0-8.331-4.731q-7.491 1.851-15.087 3.23-3.736.677-7.5 1.234-.94.14-1.88.271l-.941.13c-.779.109.629-.084.624-.084-1.337.119-2.671.34-4.005.493a243.479 243.479 0 0 1-30.566 1.566q-7.715-.09-15.414-.67-3.787-.285-7.565-.69-1.888-.2-3.774-.434c-.55-.067-1.1-.139-1.648-.208-1.222-.155.219.026.388.054-.468-.076-.942-.13-1.411-.2a129.3 129.3 0 0 1-25.143-5.8q-1.708-.606-3.4-1.272c-.506-.2-2.54-1.169-.645-.245-.49-.239-1.007-.432-1.5-.654q-3.522-1.567-6.9-3.425-3.366-1.851-6.559-4-1.623-1.092-3.194-2.26c-.234-.175-.466-.353-.7-.527-.671-.5 1.113.893.154.114-.573-.465-1.15-.925-1.717-1.4a7.269 7.269 0 0 0-4.789-1.984 6.893 6.893 0 0 0-4.789 1.984c-2.3 2.5-2.907 7.156 0 9.578z"/><path d="M1684.312 478.182a45.488 45.488 0 0 0-2.732 17.312 49.015 49.015 0 0 0 4.386 18.3 6.785 6.785 0 0 0 4.048 3.112 6.919 6.919 0 0 0 5.218-.682 6.839 6.839 0 0 0 3.113-4.048 7.815 7.815 0 0 0-.683-5.218c-.424-.952.229.293.168.424.068-.147-.342-.861-.4-1.008q-.307-.81-.577-1.633-.576-1.749-.986-3.546-.217-.95-.387-1.91c-.051-.284-.088-.571-.143-.855-.173-.9.159 1.422.063.513-.137-1.295-.256-2.584-.29-3.887q-.05-1.842.067-3.682c.038-.577.1-1.151.148-1.727.084-.935-.025.2-.083.511.067-.353.106-.715.165-1.07a40.175 40.175 0 0 1 1.964-7.31c1.233-3.328-1.375-7.567-4.73-8.331-3.837-.874-7.011 1.167-8.331 4.73zM1934.2 439.68a38.874 38.874 0 0 0 .906 36.39 6.773 6.773 0 1 0 11.695-6.836c-.3-.528-.593-1.061-.865-1.6-.151-.3-.292-.608-.438-.912-.4-.823.113.244.2.5-.38-1.156-.853-2.266-1.18-3.443s-.556-2.361-.772-3.56c-.168-.937.019.356.076.6a7.085 7.085 0 0 1-.1-1.008q-.079-.908-.108-1.82a32.406 32.406 0 0 1 .078-3.442c.026-.336.065-.672.093-1.008.079-.953-.09.354-.089.6a9.235 9.235 0 0 1 .317-1.794 30.931 30.931 0 0 1 .944-3.515c.19-.571.469-1.131.627-1.709-.071.26-.6 1.331-.207.5.172-.368.343-.734.523-1.1 1.564-3.173.959-7.475-2.43-9.266-3.055-1.614-7.593-.962-9.266 2.43zm-106.682 107.852c5.326 6.3 13.7 10.756 22.067 10.555 8.2-.2 16.126-5.026 19.445-12.672 1.919-4.421 2.7-9.448.916-14.075a7.348 7.348 0 0 0-3.113-4.047 6.911 6.911 0 0 0-5.218-.683c-3.209 1.038-6.1 4.792-4.731 8.331a12.024 12.024 0 0 1 .417 1.253c.2.742.028 1.88.05-.208-.008.751.051 1.491.011 2.247-.06 1.161.376-1.92-.014-.209a12.916 12.916 0 0 1-.352 1.252c-.55 1.648.6-1.121.073-.1-.151.3-.292.594-.452.884-.215.388-.448.766-.695 1.134-.974 1.445.819-.885.051-.036a20.686 20.686 0 0 1-1.642 1.682c-1.309 1.156 1.01-.64.053-.017-.375.245-.74.5-1.129.724s-.822.378-1.188.616q1.665-.679.693-.3a9.77 9.77 0 0 1-.472.166q-.555.185-1.124.32-.372.087-.748.157-1.084.18.674-.074c-.933-.037-1.878.132-2.822.082-.64-.034-1.859-.44.114.073-.482-.125-1-.168-1.484-.28a20.56 20.56 0 0 1-2.727-.83c-1.533-.582 1.2.612.03.009-.457-.236-.922-.453-1.372-.7a24.4 24.4 0 0 1-2.449-1.556c-1.329-.958.968.858-.01-.009-.387-.343-.784-.672-1.161-1.027a26.827 26.827 0 0 1-2.114-2.243c-2.3-2.717-7.245-2.541-9.577 0-2.653 2.89-2.449 6.68 0 9.577z"/><path d="M1853.068 559.1c-.181-.233-.83-1.117-.312-.386.158.224.321.445.479.67q.471.675.912 1.371.936 1.478 1.732 3.039.375.734.717 1.482c.093.2.48 1.117.073.134s-.031-.063.05.143q.642 1.629 1.134 3.311.463 1.581.79 3.2c.108.539.2 1.08.291 1.621.161.934-.053-.309-.069-.577.016.273.065.547.093.818a38.213 38.213 0 0 1 .063 6.989c-.285 3.54 3.319 6.927 6.773 6.772a6.942 6.942 0 0 0 6.772-6.772 43.717 43.717 0 0 0-1.769-16.044 47.225 47.225 0 0 0-8.151-15.345 6.756 6.756 0 0 0-4.789-1.984 6.893 6.893 0 0 0-4.789 1.984 6.811 6.811 0 0 0-1.984 4.788 7.956 7.956 0 0 0 1.984 4.789z"/><path d="M1805.1 599.5c5.415 9.588 17.091 13.5 27.586 13.055a51.048 51.048 0 0 0 29.675-11.384 47.989 47.989 0 0 0 11.171-12.858 6.773 6.773 0 1 0-11.695-6.837 43.13 43.13 0 0 1-1.737 2.678c-.137.194-1.241 1.642-.474.673.668-.844.119-.158-.05.052q-.294.366-.6.724a42.689 42.689 0 0 1-4.607 4.671q-.566.494-1.149.967c-1.242 1.008 1.172-.862-.113.093q-1.356 1.008-2.788 1.912a48.851 48.851 0 0 1-5.8 3.087c-.433.2-1.073.275.581-.241-.233.073-.472.191-.7.279a44.01 44.01 0 0 1-1.408.523q-1.593.561-3.227 1-1.45.386-2.926.668c-.492.094-.986.17-1.479.255-1.131.2.654-.07.686-.085a4.649 4.649 0 0 1-1.119.125 35.9 35.9 0 0 1-6.2.1c-.476-.036-.956-.122-1.432-.139 2.151.079.653.09.019-.024a28.7 28.7 0 0 1-3.143-.745 26.099 26.099 0 0 1-1.687-.568c-.221-.083-.438-.177-.659-.258 1.956.717.778.325.332.11a20.443 20.443 0 0 1-2.706-1.564c-.184-.127-1.124-.837-.146-.082.941.725.1.059-.111-.122a16.444 16.444 0 0 1-1.23-1.19c-.156-.167-.3-.341-.457-.512-.785-.878.9 1.343.212.284-.319-.49-.639-.969-.927-1.479a6.774 6.774 0 0 0-11.7 6.837z"/><path d="M1862.537 590.073c13.021 12.746 32.868 14.6 49.516 8.786a79.626 79.626 0 0 0 14.39-6.734c3.045-1.811 4.422-6.176 2.43-9.266a6.892 6.892 0 0 0-9.266-2.43 78.591 78.591 0 0 1-5.238 2.865q-1.29.639-2.6 1.226c-.2.09-.407.176-.608.267-.684.31.6-.27.6-.25-.049.2-1.379.552-1.644.654a58.088 58.088 0 0 1-11.47 3.076c-1.281.207 1.348-.142.057-.009-.438.045-.875.094-1.313.132q-1.516.132-3.04.164a41.953 41.953 0 0 1-5.41-.243c-1.563-.172 1.176.2.007.006-.4-.066-.794-.128-1.189-.2q-1.383-.255-2.746-.6-1.262-.325-2.5-.733-.57-.187-1.134-.393c-.241-.088-1.941-.775-.865-.317 1.042.444-.387-.183-.649-.306q-.721-.341-1.425-.714-1.318-.7-2.574-1.508-.584-.378-1.152-.779a3.889 3.889 0 0 0-.643-.468c.223.078 1.142.919.427.328a38.671 38.671 0 0 1-2.379-2.126c-2.534-2.481-7.085-2.715-9.577 0a6.888 6.888 0 0 0 0 9.577zm151.42 4.327q3.469 1.065 6.869 2.336 1.68.632 3.338 1.316c.454.188 1.348.606-.519-.223.31.138.624.268.935.4q.853.372 1.7.759a105.943 105.943 0 0 1 12.459 6.713q2.905 1.83 5.683 3.853.655.478 1.3.967c.172.13.342.265.516.392-1.756-1.287-.729-.564-.348-.265q1.394 1.1 2.746 2.243a92.049 92.049 0 0 1 9.55 9.361q1.044 1.185 2.044 2.407.5.609.987 1.228c.3.384 1.019 1.393-.286-.377.187.253.382.5.57.753q1.976 2.638 3.745 5.424a85.618 85.618 0 0 1 6.148 11.638c.5 1.155-.666-1.626-.2-.457.078.2.159.389.237.583q.294.732.574 1.468.618 1.626 1.165 3.276 1.052 3.173 1.84 6.425.816 3.369 1.344 6.8l.12.8c.188 1.238-.191-1.556-.087-.67.064.542.135 1.083.195 1.625q.2 1.8.319 3.613a88.122 88.122 0 0 1-.24 14.42q-.086.872-.187 1.741c-.069.585-.4 2.691-.028.3-.2 1.3-.39 2.593-.625 3.884q-.688 3.792-1.669 7.523a119.173 119.173 0 0 1-5.235 15.32c-.514 1.244.536-1.253.172-.408l-.37.862q-.374.862-.755 1.72-.843 1.893-1.729 3.765-1.7 3.59-3.555 7.1a213.93 213.93 0 0 1-17.338 26.965c1.328-1.8-.157.193-.477.6q-.6.753-1.2 1.5-1.329 1.644-2.693 3.258-2.6 3.082-5.34 6.052-5.527 6-11.568 11.5-2.976 2.7-6.07 5.273-1.47 1.22-2.967 2.408c-.5.4-1.008.778-1.5 1.179 1.737-1.41-.343.254-.752.562q-6.382 4.792-13.2 8.967a154.773 154.773 0 0 1-13.93 7.562q-1.7.811-3.415 1.578-.858.382-1.72.755c-.414.178-1.713.7.235-.1-.347.141-.693.288-1.04.431q-3.642 1.492-7.365 2.782t-7.5 2.356c-3.406.967-5.863 4.831-4.73 8.331a6.889 6.889 0 0 0 8.331 4.73c21.929-6.228 41.973-17.664 59.428-32.213a192.629 192.629 0 0 0 43.013-51.321c11.139-19.242 19.633-40.683 19.754-63.195a89 89 0 0 0-17.821-54.057 103.177 103.177 0 0 0-21.7-21.161 112.54 112.54 0 0 0-26.7-14.091q-3.4-1.277-6.869-2.336a6.837 6.837 0 0 0-8.331 4.73 6.916 6.916 0 0 0 4.73 8.331zM892.106 531.628c13.5 8.5 27 17.012 40.094 26.141q4.96 3.459 9.83 7.044 2.313 1.707 4.6 3.448.572.435 1.142.872c.269.206 1.292 1 .222.169q1.359 1.057 2.712 2.126c6.142 4.867 12.116 9.95 17.841 15.3a219.078 219.078 0 0 1 16.5 17.1q1.769 2.058 3.479 4.165.855 1.054 1.7 2.123c.225.285.447.571.671.857-1.031-1.321.417.554.594.79q3.279 4.35 6.289 8.895a162.839 162.839 0 0 1 11.257 19.843 181.657 181.657 0 0 1 2.237 4.926c.509 1.157.044.087-.048-.127.214.5.415 1 .618 1.5q.609 1.5 1.184 3.011 1.956 5.149 3.494 10.445 1.524 5.269 2.589 10.657.516 2.621.912 5.263c.046.306.329 2.105.056.315.054.351.091.707.134 1.059q.2 1.59.344 3.186a107.767 107.767 0 0 1-.172 21.978c-.047.42-.1.838-.148 1.258-.189 1.667.168-1.107.009-.046-.125.832-.244 1.665-.381 2.5q-.431 2.61-.987 5.2-1.109 5.16-2.7 10.2c-1.058 3.361-2.285 6.658-3.612 9.921-.129.316-.427 1.207.1-.225-.172.469-.4.929-.6 1.386q-.51 1.154-1.043 2.3-1.12 2.4-2.338 4.761a143.566 143.566 0 0 1-11.047 17.952c-1 1.384-2 2.76-3.053 4.1.945-1.21.2-.259-.043.043l-.8 1q-.962 1.2-1.946 2.382-3.367 4.046-6.986 7.873a179.479 179.479 0 0 1-15.527 14.58q-1.963 1.638-3.972 3.221c-.334.264-.67.525-1 .787-.831.652 1.293-.974-.044.03-.851.64-1.7 1.284-2.557 1.916q-4.77 3.513-9.723 6.77a304.513 304.513 0 0 1-42.128 22.793q-5.418 2.451-10.9 4.762c1.45-.613-.337.138-.524.217l-1.072.446q-1.341.558-2.685 1.108-2.958 1.212-5.928 2.394c-7.47 2.976-14.988 5.828-22.522 8.636q-5.571 2.076-11.15 4.131c-3.314 1.223-5.923 4.645-4.73 8.331 1.051 3.249 4.772 6.044 8.331 4.73 31.11-11.487 62.543-23.084 91.1-40.179 26.283-15.733 49.867-36.441 65.883-62.795a130.233 130.233 0 0 0 16.387-40.467 118.454 118.454 0 0 0 .23-46.89c-5.962-31.073-23.459-59.248-45.16-81.829-22.763-23.686-50.335-42.116-77.942-59.622q-5.109-3.239-10.23-6.456a6.836 6.836 0 0 0-9.267 2.43 6.916 6.916 0 0 0 2.43 9.266zM401.74 628.645c-21.183 13.029-42.039 26.612-62.779 40.329-44.6 29.5-88.539 60.076-131.02 92.561-40.889 31.266-82.6 64.028-115.892 103.59-21 24.959-40.938 51.711-57.659 79.733-17.027 28.534-30.135 59.71-33.573 93-6.21 60.117 23.638 121.7 67.841 161.55 34.917 31.474 79.3 50 124.605 60.766 63.4 15.064 129.661 16.967 194.516 14.721 42.265-1.463 84.334-6.029 126.65-6.148a969.61 969.61 0 0 1 125.388 8.039c70.54 9 140.172 25.215 207.964 46.576 52.923 16.675 104.149 37.942 158.267 50.778 27.736 6.578 56.248 11.762 84.816 12.324 21.32.42 45.458-1.43 63.754-13.562 18.829-12.486 24.716-33.3 23.574-55.015-1.4-26.56-13.509-50.642-30.962-70.315-20.259-22.836-46.874-39.8-74.222-52.886-32.249-15.427-66.67-26.146-101.634-33.381-57.366-11.87-115.475-22.257-173.726-28.642-62.019-6.8-124.409-7.428-186.7-4.7-80.452 3.519-160.445 12.932-241.094 11.339-54.892-1.084-112.984-4.76-164.55-25.317-16.5-6.578-32.58-15.576-44.855-28.493-12.051-12.682-17.755-28.8-17.155-46.822.821-24.659 10.808-48.752 21.974-70.374 16.357-31.673 37.329-60.934 59.7-88.6 49.35-61.025 106.153-116.45 164.138-169.214 10.078-9.17 20.206-18.305 30.568-27.156 6.638-5.671-2.981-15.213-9.578-9.578-37.396 31.946-73.089 66.119-107.736 101.015-30.308 30.525-59.9 61.883-86.964 95.348-22.32 27.6-43.41 56.589-60.074 88-19.558 36.869-40.224 89.8-12.021 127.85 24.059 32.457 66.314 46.46 104.218 54.574 63.181 13.524 129.142 13.937 193.423 11.557 78.317-2.9 156.173-11.977 234.629-12.167a1116.305 1116.305 0 0 1 169.818 12.543c28.32 4.284 56.509 9.39 84.658 14.669 34.371 6.445 68.488 13.143 101.516 24.924 30.247 10.789 60.233 25.12 85.331 45.413 20.056 16.217 37.774 36.857 44.737 62.167 5.125 18.63 6.212 43.505-9.045 57.763-14.443 13.5-37.349 15.429-56.094 15.546-27.55.172-55.02-4.584-81.794-10.7a786.979 786.979 0 0 1-83.437-24.324c-24.564-8.558-48.878-17.712-73.66-25.654q-45.732-14.657-92.454-25.944c-76.169-18.322-154.322-29.648-232.714-31-42.235-.729-84.048 3.2-126.173 5.248a1050.936 1050.936 0 0 1-109.275.138c-54.327-3.019-110.412-10.974-160.4-33.589-40.015-18.105-73.508-45.881-96.164-83.709-19.007-31.735-29.791-67.6-26.141-104.757 3.194-32.509 17.107-62.983 33.974-90.554a581.035 581.035 0 0 1 56.06-76.549c15.647-18.064 33.213-34.456 51.194-50.159 41.986-36.667 87.052-69.79 132.74-101.661q51.44-35.882 104.455-69.449c5.274-3.341 10.553-6.674 15.871-9.945 7.412-4.559.616-16.28-6.836-11.7zm1307.471-12.366q-27.386 9.579-55.253 17.7-7.876 2.292-15.785 4.464c-3.415.939-5.856 4.851-4.73 8.331a6.9 6.9 0 0 0 8.331 4.73q27.975-7.69 55.515-16.858 7.782-2.592 15.523-5.3c3.336-1.167 5.91-4.687 4.73-8.331-1.067-3.3-4.75-5.983-8.331-4.73zm4.859 27.05q-1.527 1.193-3.059 2.379-.876.678.221-.17l-.767.592-1.536 1.181q-2.881 2.211-5.781 4.4-6.087 4.6-12.246 9.1-12.22 8.933-24.717 17.479c-2.918 2-4.509 6.041-2.429 9.266 1.872 2.9 6.139 4.569 9.266 2.43q25.9-17.726 50.626-37.08a6.759 6.759 0 0 0 1.983-4.789 6.9 6.9 0 0 0-1.983-4.789 6.818 6.818 0 0 0-4.789-1.983 7.94 7.94 0 0 0-4.789 1.983zm31.164 13.447a299.706 299.706 0 0 0-23.074 36.91c-1.654 3.13-.9 7.507 2.43 9.266 3.13 1.653 7.5.915 9.266-2.43a299.567 299.567 0 0 1 23.073-36.909 6.819 6.819 0 0 0 .683-5.219 6.908 6.908 0 0 0-3.112-4.048 6.839 6.839 0 0 0-5.219-.682 7.8 7.8 0 0 0-4.047 3.112z"/><path d="m1962.809 600.913 28.512 22.8a7.348 7.348 0 0 0 4.789 1.983 6.89 6.89 0 0 0 4.789-1.983c2.256-2.457 2.955-7.215 0-9.578l-28.512-22.8a7.349 7.349 0 0 0-4.789-1.984 6.893 6.893 0 0 0-4.789 1.984c-2.255 2.457-2.955 7.215 0 9.578zm13.16-24.473a221.405 221.405 0 0 0 40.181 5.185 6.827 6.827 0 0 0 6.773-6.773 6.913 6.913 0 0 0-6.773-6.772q-9.562-.348-19.065-1.549c-.395-.051-1.64-.26.119.02-.318-.051-.64-.088-.959-.132q-1.2-.169-2.4-.352-2.394-.365-4.78-.785-4.77-.842-9.5-1.9c-3.45-.77-7.492 1.045-8.331 4.731-.782 3.433 1.032 7.5 4.73 8.331zm1.961-18.891 49.13-7.118a6.76 6.76 0 0 0 4.047-3.112 6.772 6.772 0 0 0-2.429-9.266 7.924 7.924 0 0 0-5.219-.683l-49.13 7.118a6.76 6.76 0 0 0-4.047 3.112 6.772 6.772 0 0 0 2.429 9.266 7.925 7.925 0 0 0 5.219.683z"/></svg></g></svg>